<!-- Generated by IcoMoon.io -->
<svg version="1.1" xmlns="http://www.w3.org/2000/svg" width="24" height="32" viewBox="0 0 24 32">
<title>fire</title>
<path fill="#ff6b09" d="M21.041 16.080c-0.275-0.615-0.654-1.222-1.208-1.922-1.398-1.757-1.824-5.676-1.829-5.714-0.019-0.188-0.152-0.343-0.327-0.399-0.18-0.056-0.374-0.005-0.502 0.136-1.668 1.865-0.967 4.746-0.588 5.897 0.104 0.315 0.218 0.686 0.298 1.062 0.616 3.040-0.573 4.417-0.853 4.694-0.27 0.075-0.455 0.038-0.625-0.146-0.588-0.644-0.782-2.753-0.507-5.502 0.057-0.559 0.043-1.062-0.038-1.532-0.58-3.379-2.704-5.546-3.245-6.306-1.488-2.199-1.639-5.859-1.644-5.892-0.005-0.174-0.104-0.329-0.261-0.404-0.152-0.075-0.336-0.066-0.479 0.033-2.483 1.687-2.269 5.751-1.924 8.021 0.081 0.526 0.237 1.062 0.507 1.739 0.962 2.42-0.19 5.544-0.199 5.573s-0.019 0.052-0.024 0.080c-0.147 0.771-0.393 1.231-0.668 1.231-0.028 0-0.057-0.005-0.090-0.014-0.336-0.070-0.512-0.428-0.516-0.738-0.019-4.008-4.041-5.357-4.084-5.371-0.18-0.056-0.379-0.005-0.502 0.141-0.128 0.146-0.152 0.348-0.066 0.517 0.047 0.099 0.199 0.531 0.095 2.058-0.090 1.372-0.341 2.73-0.744 4.032-0.957 3.12-0.805 6.076-0.796 6.216 0.736 8.002 12.245 9.404 19.075 4.896 0.748-0.493 1.36-1.057 1.81-1.677 2.521-3.477 1.038-8.199-0.066-10.708zM3.535 23.725c0.014 0.258-0.185 0.479-0.445 0.493h-0.028c-0.251 0-0.46-0.193-0.474-0.442-0.043-0.686-0.033-1.405 0.019-2.185 0.019-0.258 0.246-0.451 0.507-0.437 0.261 0.019 0.46 0.244 0.441 0.503-0.052 0.742-0.062 1.419-0.019 2.068zM3.767 19.562c-0.028 0.24-0.232 0.414-0.469 0.414-0.019 0-0.038 0-0.062-0.005-0.256-0.033-0.441-0.263-0.412-0.521l0.227-1.814c0.033-0.254 0.265-0.437 0.531-0.409 0.261 0.033 0.445 0.268 0.412 0.526l-0.227 1.809z"></path>
</svg>
