<!-- Generated by IcoMoon.io -->
<svg version="1.1" xmlns="http://www.w3.org/2000/svg" width="27" height="32" viewBox="0 0 27 32">
<title>icon-human</title>
<path fill="#ff6b09" d="M-0.105 31.754c3.514 0 23.845 0 27.355 0 0.136-3.12-0.088-8.295-2.006-10.759l-0.069-0.088-4.191-2.104c0.091-0.307 0.136-0.588 0.154-0.795 0.021-0.248-0.013-0.481-0.102-0.692-0.691-1.655-2.155-2.525-2.959-2.896 0.245-0.494 0.403-1.025 0.48-1.567 0.456-0.128 0.822-0.489 0.942-0.971l0.489-1.987c0.087-0.351 0.032-0.714-0.154-1.023-0.080-0.133-0.184-0.246-0.3-0.341 1.379-3.133-0.931-6.087-1.057-6.243-2.502-2.705-5.662-2.199-5.829-2.169-4.561 0.955-6.321 4.451-5.328 8.55-0.294 0.326-0.418 0.78-0.309 1.226l0.492 1.99c0.119 0.478 0.483 0.838 0.935 0.968 0.14 0.993 0.56 1.89 1.177 2.614v1.576c-6.545 3.352-2.398 1.213-7.643 3.867-0.010 0.049-2.461 2.654-2.097 10.375l0.022 0.472zM26.299 30.763h-4.502v-1.891l2.978-6.817c1.492 2.476 1.547 7.203 1.524 8.708zM20.155 17.923c-0.174 1.996-1.268 1.393-1.944 2.93-0.531-0.584-0.691-1.285-0.548-2.035 0.258-1.377-0.583-1.786-0.375-3.233l0.031-0.033v-0.005c0.018-0.020 0.184-0.217 0.232-0.28 1.781 0.776 2.639 2.221 2.604 2.656zM10.6 16.354c0.827 0.573 1.825 0.912 2.899 0.912 1.011 0 1.971-0.294 2.795-0.836 0.114 1.138 0.559 1.365 0.401 2.203-0.030 0.155-0.046 0.308-0.055 0.459l-3.066 3.456-3.919-4.419 0.946-0.494v-1.281zM9.367 12.125v-1.916c0-0.706 0-3.504 0-3.366 0.477-0.883 1.128-1.522 1.936-1.906 2.165 1.225 4.657 3.053 6.329 4.893-0.002 2.343 0.007 2.35-0.009 2.542l-0.001 0.012c-0.13 2.128-1.88 3.892-4.124 3.892-2.181 0-3.992-1.713-4.123-3.913-0.007-0.079-0.008-0.158-0.008-0.238zM8.756 18.607l4.816 5.43 3.234-3.644c0.074 0.213 0.178 0.414 0.296 0.608l-3.53 4.414-5.264-6.583 0.447-0.224zM18.618 11.329v-1.53c0.043-0.050 0.411-0.471 0.368-0.421 0.020 0.775 0.104-0.14-0.368 1.951zM12.829 1.090c0.196 0.012 2.824-0.4 4.901 1.843 0.082 0.103 1.773 2.281 1.093 4.665-0.233-1.061-0.638-2.42-1.278-3.068l-0.7 0.697c0.632 0.641 1.048 2.591 1.206 3.602-2.901-3.035-6.643-4.957-6.694-4.989-0.188 0.117-1.771 0.418-2.921 2.653l-0.055 0.107v1.642c-0.049 0.001-0.194 0.002-0.145 0.002-0.731-3.528 0.669-6.33 4.593-7.153zM8.132 9.262l0.249 1.008v1.060l-0.414-1.674c-0.061-0.25 0.124-0.344 0.165-0.394zM7.407 19.285l6.166 7.712 4.172-5.218c0.454 0.406 0.672 0.464 1.634 0.959l-0.325-1.101c-0.082-0.279 0.244-0.728 0.441-0.934 0.44-0.238 0.806-0.578 1.080-0.998l3.404 1.709-3.167 7.251v2.099h-14.477v-2.099l-3.169-7.25 4.242-2.129zM2.37 22.058l2.978 6.815v1.891h-4.502c-0.023-1.504 0.033-6.229 1.524-8.706z"></path>
</svg>
