<svg width="0" height="0" class="hidden">
  <symbol fill="none" xmlns="http://www.w3.org/2000/svg" viewBox="0 0 27 16" id="arrow-to-left">
    <path d="M26 7a1 1 0 110 2V7zM.293 8.707a1 1 0 010-1.414L6.657.929A1 1 0 018.07 2.343L2.414 8l5.657 5.657a1 1 0 11-1.414 1.414L.293 8.707zM26 9H1V7h25v2z" fill="#FF6B09"></path>
  </symbol>
  <symbol fill="none" xmlns="http://www.w3.org/2000/svg" viewBox="0 0 27 16" id="arrow-to-right">
    <path d="M1 7a1 1 0 000 2V7zm25.707 1.707a1 1 0 000-1.414L20.343.929a1 1 0 10-1.414 1.414L24.586 8l-5.657 5.657a1 1 0 001.414 1.414l6.364-6.364zM1 9h25V7H1v2z" fill="#FF6B09"></path>
  </symbol>
  <symbol fill="none" xmlns="http://www.w3.org/2000/svg" viewBox="0 0 21 14" id="burger-button">
    <path d="M0 1h20.5M0 7h20.5M0 13h20.5" stroke="#000" stroke-width="2"></path>
  </symbol>
  <symbol fill="none" xmlns="http://www.w3.org/2000/svg" viewBox="0 0 18 14" id="check">
    <path d="M15.075.662c-.65.29-1.272.646-1.866 1.041-1.195.786-2.287 1.722-3.312 2.72A36.922 36.922 0 007.018 7.61L5.783 9.127 1.585 2.836 0 7.229 5.678 14c.55-1.116 1.081-2.218 1.602-3.175.13-.244.265-.473.394-.706 0 0 .666-1.17.842-1.466a35.42 35.42 0 012.291-3.421c.835-1.09 1.743-2.13 2.772-3.046A12.43 12.43 0 0115.219.93 9.148 9.148 0 0117.085 0a9.306 9.306 0 00-2.009.662z" fill="#FF6B09"></path>
  </symbol>
  <symbol fill="none" xmlns="http://www.w3.org/2000/svg" viewBox="0 0 17 17" id="cross-button">
    <path d="M1 15.496L15.496 1m0 14.496L1 1" stroke="#fff" stroke-width="2"></path>
  </symbol>
  <symbol fill="none" xmlns="http://www.w3.org/2000/svg" viewBox="0 0 15 20" id="fire">
    <path d="M13.15 10.05c-.171-.384-.408-.763-.754-1.2-.874-1.1-1.14-3.548-1.143-3.572a.296.296 0 00-.205-.25.3.3 0 00-.314.086c-1.042 1.166-.604 2.966-.367 3.685.065.197.136.429.187.664.385 1.9-.359 2.76-.533 2.934-.17.047-.285.023-.391-.091-.367-.403-.489-1.721-.317-3.44a3.468 3.468 0 00-.024-.957c-.362-2.111-1.69-3.466-2.028-3.94C6.33 2.593 6.236.305 6.233.285a.296.296 0 00-.462-.232C4.22 1.108 4.353 3.648 4.57 5.067c.05.329.148.663.317 1.086.601 1.513-.118 3.466-.124 3.483-.006.018-.012.032-.015.05-.092.482-.246.77-.418.77a.202.202 0 01-.056-.01c-.21-.043-.32-.266-.323-.46-.012-2.505-2.526-3.348-2.552-3.357a.295.295 0 00-.314.088.289.289 0 00-.042.323c.03.062.125.332.06 1.286a10.97 10.97 0 01-.465 2.52 12.277 12.277 0 00-.498 3.885c.46 5.002 7.653 5.878 11.922 3.06.468-.308.85-.66 1.131-1.048 1.575-2.173.649-5.125-.041-6.693zM2.21 14.828a.293.293 0 01-.28.309h-.017a.295.295 0 01-.296-.276c-.027-.43-.02-.879.012-1.366a.299.299 0 01.317-.273.296.296 0 01.275.314 9.48 9.48 0 00-.012 1.292zm.144-2.602a.294.294 0 01-.293.259c-.012 0-.024 0-.038-.003a.296.296 0 01-.258-.326l.142-1.134a.299.299 0 01.332-.255c.163.02.278.167.257.329l-.142 1.13z" fill="#FF6B09"></path>
  </symbol>
  <symbol fill="none" xmlns="http://www.w3.org/2000/svg" viewBox="0 0 58 48" id="icon-audio-book">
    <path d="M4.572 44.179h18.344a5.605 5.605 0 005.07 3.173h1.16a5.603 5.603 0 005.07-3.173h18.356A3.432 3.432 0 0056 40.75V7.893a3.432 3.432 0 00-3.428-3.428H50.72V2.933A2.288 2.288 0 0048.434.648H8.698a2.288 2.288 0 00-2.286 2.285v1.532h-1.84a3.432 3.432 0 00-3.429 3.428V40.75a3.432 3.432 0 003.429 3.429zm43.86-7.052H29.714V10.57c4.327.566 7.681 4.267 7.681 8.746v1.03l-.27-.06a1.142 1.142 0 00-1.362.87l-1.82 8.28a1.142 1.142 0 00.87 1.36l3.933.867c.203.043.41.065.616.065 1.383 0 2.56-.946 2.861-2.303l1.053-4.788a2.93 2.93 0 00-2.227-3.486l-1.368-.301v-1.534c0-5.741-4.376-10.48-9.966-11.056V2.933h18.72l-.003 34.194zM37.75 22.765l2.807.618c.35.078.565.412.488.762l-1.053 4.787c-.076.346-.458.561-.76.497l-2.811-.62 1.33-6.044zM8.698 2.933h18.73v5.325c-5.596.572-9.977 5.313-9.977 11.058v1.533l-1.37.303a2.908 2.908 0 00-1.834 1.28 2.895 2.895 0 00-.39 2.203l1.05 4.783a2.937 2.937 0 003.488 2.243l3.916-.865a1.142 1.142 0 00.869-1.36l-1.82-8.279a1.14 1.14 0 00-1.362-.87l-.261.057v-1.028c0-4.482 3.36-8.187 7.692-8.748v26.56H8.698V2.932zm10.676 19.833l1.33 6.044-2.794.617a.649.649 0 01-.768-.491l-1.052-4.794a.625.625 0 01.082-.478.64.64 0 01.402-.28l2.8-.618zM3.43 7.893c0-.63.512-1.143 1.143-1.143h1.84v30.377a2.288 2.288 0 002.286 2.286h39.736a2.288 2.288 0 002.286-2.285V6.75h1.852c.63 0 1.142.513 1.142 1.143V40.75c0 .63-.512 1.143-1.142 1.143H33.44c-.502 0-.945.328-1.093.808a3.332 3.332 0 01-3.202 2.366h-1.158a3.343 3.343 0 01-3.207-2.38 1.143 1.143 0 00-1.088-.794H4.572c-.63 0-1.143-.513-1.143-1.143V7.893z" fill="#FF6B09"></path>
  </symbol>
  <symbol fill="none" xmlns="http://www.w3.org/2000/svg" viewBox="0 0 69 48" id="icon-book">
    <path d="M30.4 6.912H9.94v1.532H30.4V6.912zm0 5.712H13.004v1.531H30.4v-1.531zm0 5.712H9.94v1.532H30.4v-1.532zm0 5.712H13.004v1.532H30.4v-1.532zm0 5.712H9.94v1.531H30.4V29.76zm0 5.712H13.004v1.532H30.4v-1.532zm28.085-28.56h-20.46v1.532h20.46V6.912zm-3.064 5.712H38.025v1.531h17.396v-1.531zm3.064 5.712h-20.46v1.532h20.46v-1.532zm-3.064 5.712H38.025v1.532h17.396v-1.532zm3.064 5.712h-20.46v1.531h20.46V29.76zm-3.064 5.712H38.025v1.532h17.396v-1.532z" fill="#fff"></path>
    <path d="M65.872 5.168h-2.808V.95a.766.766 0 00-.766-.766H39.4A5.924 5.924 0 0034.213 3.2 5.925 5.925 0 0029.024.184H6.128a.766.766 0 00-.766.766v4.218H2.553a.766.766 0 00-.766.766V47.05c0 .423.343.766.766.766h63.32a.766.766 0 00.765-.766V5.934a.766.766 0 00-.766-.766zM39.401 1.716h22.13V42.74H37.768c-1.054 0-2.107.444-2.788 1.02V6.128a4.398 4.398 0 014.42-4.412zm-32.508 0h22.131a4.385 4.385 0 014.413 4.243c.001.033.004.136.01.169v37.63c-.68-.574-1.722-1.017-2.778-1.017H6.893V1.716zM3.32 6.7h2.043v36.807c0 .423.343.766.766.766h24.54c1.168 0 2.297.766 2.658 2.011H3.319V6.7zm61.787 39.584H35.1a2.768 2.768 0 012.667-2.011h24.53a.766.766 0 00.767-.766V6.7h2.042v39.584z" fill="#fff"></path>
  </symbol>
  <symbol fill="none" xmlns="http://www.w3.org/2000/svg" viewBox="0 0 48 47" id="icon-cap-phone">
    <path d="M44.32-.188H21.193a2.733 2.733 0 00-2.73 2.73v9.574L1.28 19.326a.559.559 0 00-.071.997L3.4 21.634V35.61a2.525 2.525 0 00-1.961 2.458v1.347c0 .31.25.56.56.56h3.923a.56.56 0 00.56-.56v-1.347c0-1.198-.842-2.2-1.963-2.457V22.304l1.733 1.037c-.054.4-.007-.696-.025 6.506 0 2.368 6.064 3.636 12.235 3.709v10.906a2.727 2.727 0 002.729 2.726h23.126a2.73 2.73 0 002.728-2.728c0 .075-.003-2.31 0-41.917 0-1.486-1.228-2.731-2.726-2.731zM5.363 38.067v.788H2.56v-.788c0-.775.627-1.406 1.399-1.406.775 0 1.405.631 1.405 1.406zm38.957 7.999H21.193a1.61 1.61 0 01-1.335-.707 1.599 1.599 0 01-.275-.899v-3.78h26.341v3.782c0 .876-.73 1.604-1.604 1.604zm1.604-6.505H19.582v-6.002c3.012-.034 12.242-.698 12.242-3.712-.004-4.524.008-6.36-.014-6.515l5.024-3.01a.56.56 0 00-.071-.995l-17.181-7.212V7.442h26.342v32.119zM19.022 26.132c-3.103 0-9.08.401-11.675 2.096.016-5.185-.18-4.847.458-5.287 1.613-1.187 6.226-2.016 11.217-2.016 2.177 0 11.683.598 11.683 2.61v4.694c-2.62-1.711-8.566-2.097-11.683-2.097zm.56-23.59a1.61 1.61 0 011.61-1.608h23.126c.888 0 1.606.732 1.606 1.608v3.781H19.583v-3.78zm-.56 10.552l16.289 6.837-4.036 2.415c-2.146-2.128-9.244-2.54-12.253-2.54-3.013 0-10.111.413-12.252 2.54l-4.037-2.415 16.29-6.837zM7.347 29.847c0-.905 4.01-2.596 11.675-2.596 7.67 0 11.683 1.69 11.683 2.596 0 .906-4.013 2.597-11.683 2.597-7.665 0-11.675-1.69-11.675-2.597z" fill="#FF6B09"></path>
  </symbol>
  <symbol fill="none" xmlns="http://www.w3.org/2000/svg" viewBox="0 0 49 48" id="icon-hand">
    <path d="M2.99 18.837v4.247c0 .228.104.443.284.585a16.65 16.65 0 0010.255 3.543c1.111 0 2.223-.116 3.31-.336a18.027 18.027 0 007.335 1.548c2.56 0 5.027-.524 7.335-1.548 4.636.937 9.577-.069 13.564-3.207a.745.745 0 00.284-.585v-4.247c0-.623-.31-1.191-.862-1.54l-5.801-3.264c1.269-1.61 2.214-3.903 2.379-5.87.481-3.384-2.278-6.969-6.249-6.969-1.67 0-3.257.688-4.421 1.84-.04.04-.087.074-.126.115-.036.038-.065.081-.1.12-.023.025-.043.053-.066.08C28.976 1.278 26.795 0 24.224 0c-.25 0-.494.017-.737.042-.015-.001-.028-.009-.043-.009-.138 0-.43.037-.586.082-.023.006-.04.023-.061.031a6.724 6.724 0 00-4.52 3.234 6.263 6.263 0 00-4.768-2.185c-5.862 0-8.463 6.918-3.836 12.871l-5.854 3.25c-.52.329-.83.898-.83 1.521zm28.505 6.405c-.126.061-.25.127-.377.185l-.003.001a16.505 16.505 0 01-6.941 1.509 16.556 16.556 0 01-10.012-3.342V19.29c0-.146.071-.276.153-.331l6.813-3.787c.848.72 1.93 1.248 3.053 1.248 1.08 0 2.248-.536 3.078-1.265l6.73 3.78c.125.08.196.209.196.355v4.305a16.634 16.634 0 01-2.69 1.647zm12.236-6.67a.303.303 0 01.138.265v3.881c-2.953 2.216-6.505 3.222-10.105 2.97a19.774 19.774 0 001.624-1.141.744.744 0 00.285-.585V19.29c0-.652-.328-1.253-.915-1.63l-3.576-2.009.87-.482c1.054.86 1.96 1.116 2.772 1.116.994 0 2.04-.487 2.817-1.138l6.09 3.426zm-8.907-15.89c2.071 0 3.89 1.353 4.532 3.213a5.55 5.55 0 01-3.355-1.713.743.743 0 00-1.182.126 5.524 5.524 0 01-3.822 2.64v-.005a7.306 7.306 0 00-.049-.98l-.011-.099a8.24 8.24 0 00-.182-.913c.844-1.353 2.413-2.27 4.07-2.27zm-3.99 5.783a6.965 6.965 0 004.747-2.642c1.15.943 2.61 1.515 4.052 1.584-.01 2.688-2.206 7.39-4.809 7.39-2.005 0-3.718-2.868-4.358-4.857.163-.511.281-1.003.368-1.475zm.151 5.594l-1.329.736-1.341-.754c.497-.62.953-1.339 1.344-2.12.375.79.826 1.515 1.326 2.138zM28.98 9.697c-.717 2.14-2.557 5.235-4.8 5.235-2.612 0-4.838-4.296-5.262-7.044.113-.028 3.644.19 6.074-3.001 1.234 1.032 2.898 1.715 4.516 1.782.02.97-.216 2.11-.528 3.028zm-4.756-8.21c4.17 0 4.964 3.59 5.029 3.664a6.193 6.193 0 01-3.845-1.914.744.744 0 00-1.184.13 6.112 6.112 0 01-5.37 3.032c.204-2.733 2.394-4.911 5.37-4.911zm-5.532 10.42c.386.772.844 1.51 1.369 2.158l-1.313.73-1.36-.765c.515-.658.953-1.393 1.304-2.123zm-5.183-9.225c1.687 0 3.233.856 4.094 2.271-.043.15-.16.747-.175.822a5.505 5.505 0 01-2.731-1.594.743.743 0 00-1.183.13 5.568 5.568 0 01-4.766 2.722c.237-2.44 2.277-4.35 4.761-4.35zM8.814 8.516a7.061 7.061 0 005.464-2.693 6.937 6.937 0 003.083 1.441c.043.862.268 1.91.525 2.683-.41 1.26-1.198 2.76-2.176 3.758-.006.006-.014.009-.02.015-.612.645-1.482 1.078-2.166 1.078-2.391 0-4.262-3.762-4.71-6.282zM4.477 18.837c0-.113.05-.209.101-.243l6.174-3.426c.37.309.456.344.53.398.727.484 1.393.724 2.301.724.968 0 1.849-.41 2.624-1.041.043-.034.09-.067.132-.102l.881.495-3.67 2.041a1.905 1.905 0 00-.876 1.607v4.672c0 .228.105.443.285.584.475.373 1.091.809 1.624 1.142-3.651.25-7.204-.792-10.106-2.97v-3.881z" fill="#FF6B09"></path>
    <path d="M46.888 31.171a3.092 3.092 0 00-3.01-.165l-9.18 4.435a3.166 3.166 0 00-3.16-3.108l-5.264.002c-2.595-2.256-5.912-3.638-8.928-3.71-2.974-.07-5.643-.09-6.888-.096v-1.503H0V44.3h10.458v-2.069C13.325 43.878 20.866 48 24.445 48c.08 0 .16-.002.236-.007 6.294-.353 21.136-10.797 22.115-11.49a3.119 3.119 0 001.551-2.694 3.096 3.096 0 00-1.46-2.638zM8.97 42.813H1.488v-14.3H8.97v14.3zm37.06-7.586a.651.651 0 00-.065.041c-.154.109-15.421 10.907-21.367 11.24a3.651 3.651 0 01-.18.005c-3.14 0-10.792-4.129-13.96-6.001V30.017c1.24.005 3.894.025 6.853.095 2.755.066 5.814 1.382 8.183 3.519l.212.191h5.832a1.68 1.68 0 011.678 1.677 1.68 1.68 0 01-1.678 1.679H20.825v1.487h10.713a3.15 3.15 0 002.51-1.259l10.476-5.06a1.593 1.593 0 011.574.086c.484.303.762.805.762 1.377a1.63 1.63 0 01-.83 1.418zM24.917 18.238H23.43v1.38h1.487v-1.38zm0 2.75H23.43v1.38h1.487v-1.38zm0 2.752H23.43v1.379h1.487v-1.38z" fill="#FF6B09"></path>
  </symbol>
  <symbol fill="none" xmlns="http://www.w3.org/2000/svg" viewBox="0 0 40 47" id="icon-human">
    <path d="M-.154 46.638h40.177c.2-4.582-.13-12.184-2.946-15.802l-.102-.13-6.156-3.09c.134-.451.2-.864.226-1.168a2.14 2.14 0 00-.15-1.017c-1.015-2.43-3.164-3.708-4.346-4.253a7.54 7.54 0 00.704-2.301 1.975 1.975 0 001.384-1.426l.719-2.92a1.975 1.975 0 00-.227-1.503 1.967 1.967 0 00-.44-.501c2.025-4.602-1.368-8.94-1.553-9.17C23.462-.614 18.82.128 18.574.173 11.875 1.575 9.29 6.709 10.75 12.73a1.977 1.977 0 00-.453 1.8l.722 2.923c.175.702.709 1.23 1.373 1.421a7.52 7.52 0 001.729 3.84v2.314c-9.614 4.923-3.522 1.782-11.227 5.68-.015.072-3.614 3.898-3.08 15.237l.033.693zm38.781-1.454h-6.612v-2.778l4.373-10.012c2.191 3.637 2.272 10.58 2.24 12.79zm-9.025-18.86c-.255 2.932-1.862 2.046-2.855 4.304-.78-.858-1.015-1.887-.805-2.989.379-2.023-.856-2.623-.55-4.749l.046-.048v-.007c.026-.03.27-.32.34-.411 2.616 1.14 3.876 3.261 3.825 3.9zm-14.034-2.303a7.449 7.449 0 008.362.112c.168 1.67.82 2.005.59 3.235a5.408 5.408 0 00-.082.674l-4.503 5.075-5.757-6.49 1.39-.725v-1.881zm-1.81-6.212v-7.758c.7-1.296 1.656-2.236 2.843-2.8 3.18 1.8 6.84 4.485 9.296 7.188-.003 3.441.01 3.45-.013 3.733l-.002.018c-.192 3.126-2.761 5.716-6.057 5.716-3.203 0-5.863-2.515-6.055-5.747a4.102 4.102 0 01-.012-.35zm-.897 9.52l7.074 7.975 4.75-5.353c.108.313.26.608.434.894l-5.184 6.483-7.73-9.669.656-.33zm14.484-10.69v-2.247l.54-.62c.03 1.139.153-.204-.54 2.867zM18.842 1.6c.288.018 4.148-.587 7.199 2.707.12.15 2.604 3.35 1.606 6.851-.342-1.558-.937-3.554-1.878-4.506l-1.028 1.024c.929.94 1.54 3.806 1.771 5.29-4.26-4.458-9.756-7.28-9.832-7.327-.275.171-2.601.613-4.29 3.897l-.08.156v2.412l-.214.002c-1.073-5.182.982-9.298 6.746-10.506zm-6.898 12.002l.365 1.481v1.557l-.607-2.46c-.09-.366.182-.505.242-.578zm-1.065 14.722l9.056 11.326 6.127-7.664c.667.597.987.682 2.4 1.408l-.476-1.617c-.121-.41.358-1.069.647-1.371a4.38 4.38 0 001.586-1.466l5 2.51-4.653 10.65v3.083H9.303V42.1L4.649 31.452l6.23-3.128zM3.48 32.397l4.374 10.01v2.777H1.242c-.033-2.21.049-9.15 2.238-12.787z" fill="#FF6B09"></path>
  </symbol>
  <symbol fill="none" xmlns="http://www.w3.org/2000/svg" viewBox="0 0 20 20" id="icon-phone">
    <path d="M2.91.002a1.252 1.252 0 00-.87.407L.42 2.19c.002-.005-.006-.004-.052.06a.394.394 0 00-.057.11c-.66 2.103-.217 4.416.86 6.616 1.078 2.2 2.798 4.304 4.771 6.032 1.974 1.727 4.201 3.079 6.325 3.749 2.123.67 4.182.662 5.708-.445a.407.407 0 00.046-.041c.04-.04.042-.045.035-.039l.006-.008 1.614-1.775a1.263 1.263 0 00-.083-1.774l-3.829-3.482a1.263 1.263 0 00-1.775.083l-1.732 1.905c-1.406-.408-2.608-1.098-3.765-2.15C7.335 9.982 6.534 8.85 5.996 7.488l1.732-1.905a1.262 1.262 0 00-.084-1.775L3.816.325A1.253 1.253 0 002.91 0zm.037.78a.469.469 0 01.338.126L7.113 4.39a.46.46 0 01.032.663L5.23 7.157a.394.394 0 00-.078.4c.581 1.585 1.519 2.886 2.808 4.059 1.29 1.173 2.672 1.984 4.306 2.412a.395.395 0 00.39-.116l1.916-2.104a.46.46 0 01.662-.031l3.83 3.482a.46.46 0 01.03.662l-1.6 1.76c-1.253.898-3.017.949-4.992.325-1.983-.626-4.136-1.922-6.041-3.59-1.906-1.668-3.564-3.704-4.583-5.784-1.009-2.058-1.375-4.14-.82-5.974L2.622.94a.468.468 0 01.325-.157z" fill="#FF6B09"></path>
  </symbol>
  <symbol fill="none" xmlns="http://www.w3.org/2000/svg" viewBox="0 0 46 48" id="icon-program">
    <g clip-path="url(#clip0)" fill="#FF6B09">
      <path d="M45.226 7.441l-.001-.004a.42.42 0 00-.09-.135L37.925.093a.394.394 0 00-.06-.049c-.004-.003-.01-.005-.014-.009a.45.45 0 00-.054-.029L37.781 0a.437.437 0 00-.148-.03H5.868a.426.426 0 00-.426.426v43.966c0 .028.003.055.008.083l.01.035.015.045.02.038.019.035a.457.457 0 00.049.06l.004.004 3.247 3.247a.426.426 0 00.603 0l2.946-2.946 2.946 2.946a.424.424 0 00.603 0l2.945-2.945 2.947 2.945a.426.426 0 00.602 0l2.946-2.945 2.945 2.945a.425.425 0 00.602 0l2.948-2.946 2.945 2.946a.423.423 0 00.602 0l2.946-2.945 2.947 2.945a.425.425 0 00.602 0l3.247-3.247.017-.02c.011-.014.025-.028.035-.044.01-.014.017-.03.024-.045.006-.01.011-.018.015-.028.009-.02.013-.04.018-.06l.007-.02a.441.441 0 00.008-.086V7.604a.45.45 0 00-.034-.163zM38.05 1.424l5.754 5.753H38.05V1.424zm6.356 42.76l-2.82 2.82-2.947-2.946a.426.426 0 00-.602 0l-2.945 2.946-2.945-2.946a.427.427 0 00-.603 0l-2.947 2.946-2.945-2.944v-.002a.425.425 0 00-.603 0l-2.945 2.946-2.947-2.946a.427.427 0 00-.603 0l-2.945 2.946-2.946-2.946a.427.427 0 00-.602 0l-2.947 2.946-2.82-2.82V.82h30.904v6.783c0 .235.191.426.426.426h6.782v36.154z"></path>
      <path d="M9.47 4.851h13.955a.426.426 0 000-.852H9.471a.426.426 0 100 .852zm0 2.635h22.38a.426.426 0 000-.852H9.47a.426.426 0 100 .852zm-.426 2.366V23.65c0 .235.19.426.427.426h31.758a.426.426 0 00.426-.426V9.852a.426.426 0 00-.426-.426H9.471a.426.426 0 00-.427.426zm9.418.426h22.34v3.668h-22.34v-3.668zm0 4.52h22.34v3.666h-22.34v-3.666zm0 4.518h22.34v3.908h-22.34v-3.908zm-8.565-9.038h7.713v3.668H9.897v-3.668zm0 4.52h7.713v3.666H9.897v-3.666zm0 4.518h7.713v3.908H9.897v-3.908zm31.332 6.678H9.471a.426.426 0 00-.427.426v13.797a.426.426 0 10.852 0v-4.333h7.714v4.333a.426.426 0 00.852 0v-4.333h22.34v4.333a.426.426 0 00.852 0V26.42a.424.424 0 00-.425-.426zM17.61 35.03H9.897v-3.665h7.713v3.665zm0-4.518H9.897v-3.666h7.713v3.666zm23.192 4.518h-22.34v-3.665h22.34v3.665zm0-4.518h-22.34v-3.666h22.34v3.666zM3.421-.032a.426.426 0 00-.426.426V44.36a.426.426 0 00.853 0V.394a.426.426 0 00-.427-.426zm-2.343 0A.426.426 0 00.65.394V44.36a.426.426 0 00.852 0V.394a.426.426 0 00-.425-.426z"></path>
    </g>
    <defs>
      <clipPath id="clip0">
        <path fill="#fff" d="M0 0h45.391v48H0z"></path>
      </clipPath>
    </defs>
  </symbol>
  <symbol fill="none" xmlns="http://www.w3.org/2000/svg" viewBox="0 0 128 45" id="logo">
    <path d="M19.136 6.8V25h-5.148v-7.098h-7.02V25H1.82V6.8h5.148v6.838h7.02V6.8h5.148zm18.841 11.18c0 .035-.026.442-.078 1.222H27.655c.208.728.607 1.291 1.196 1.69.607.381 1.36.572 2.262.572.676 0 1.257-.095 1.742-.286.503-.19 1.006-.503 1.508-.936l2.6 2.704c-1.37 1.525-3.371 2.288-6.006 2.288-1.646 0-3.094-.312-4.342-.936-1.248-.624-2.218-1.49-2.912-2.6-.676-1.11-1.014-2.366-1.014-3.77 0-1.387.33-2.626.988-3.718a7.057 7.057 0 012.782-2.6c1.179-.624 2.505-.936 3.978-.936 1.404 0 2.678.295 3.822.884a6.431 6.431 0 012.704 2.522c.676 1.092 1.014 2.392 1.014 3.9zm-7.514-3.796c-.762 0-1.404.217-1.924.65-.502.433-.823 1.023-.962 1.768h5.772c-.138-.745-.468-1.335-.988-1.768-.502-.433-1.135-.65-1.898-.65zm10.832-8.476h4.94V25h-4.94V5.708zm9.19 0h4.94V25h-4.94V5.708z" fill="#111518"></path>
    <path d="M6.488 41.8h-2.6L3.392 43H2.064l2.496-5.6h1.28L8.344 43h-1.36l-.496-1.2zm-.408-.984l-.888-2.144-.888 2.144H6.08zm10.27 1.128v2.216h-1.2V43h-3.953v1.16h-1.2l.008-2.216h.224c.337-.01.574-.256.713-.736.138-.48.223-1.165.255-2.056l.065-1.752h4.303v4.544h.784zm-4.009-2.672a11.86 11.86 0 01-.167 1.68c-.086.448-.216.779-.393.992h2.505v-3.488h-1.92l-.024.816zm8.969 3.824c-.57 0-1.088-.123-1.552-.368a2.853 2.853 0 01-1.088-1.032 2.887 2.887 0 01-.392-1.496c0-.555.13-1.05.392-1.488.267-.443.63-.787 1.088-1.032.464-.25.984-.376 1.56-.376.485 0 .923.085 1.312.256.395.17.725.416.992.736l-.832.768c-.379-.437-.848-.656-1.408-.656a1.84 1.84 0 00-.928.232 1.62 1.62 0 00-.64.632c-.15.272-.224.581-.224.928 0 .347.075.656.224.928.155.272.368.485.64.64.272.15.581.224.928.224.56 0 1.03-.221 1.408-.664l.832.768a2.593 2.593 0 01-.992.744c-.395.17-.835.256-1.32.256zm6.765-2.352h-.896V43H25.89v-5.6h1.288v2.264h.928l1.472-2.264h1.368l-1.832 2.704L31.003 43H29.53l-1.456-2.256zM33.05 37.4h1.288v3.648L37.01 37.4h1.216V43h-1.28v-3.64L34.274 43H33.05v-5.6zm8.01 0h1.288v3.648L45.02 37.4h1.216V43h-1.28v-3.64L42.284 43H41.06v-5.6zm2.584-.36c-1.024 0-1.541-.408-1.552-1.224h.888c.01.39.232.584.664.584.213 0 .376-.048.488-.144.112-.101.17-.248.176-.44h.888c-.005.4-.136.704-.392.912-.256.208-.643.312-1.16.312z" fill="#FF6B09"></path>
    <path d="M56.568 41.8h-2.6l-.496 1.2h-1.328l2.496-5.6h1.28l2.504 5.6h-1.36l-.496-1.2zm-.408-.984l-.888-2.144-.888 2.144h1.776zm9.583-3.416V43h-1.296v-2.296h-2.544V43h-1.296v-5.6h1.296v2.208h2.544V37.4h1.296zm6.787 1.056h-2.664L69.874 43h-1.288v-5.6h3.952l-.008 1.056zm6.535-1.056V43h-1.28v-4.544h-1.92l-.04 1.168c-.027.795-.091 1.44-.192 1.936-.102.49-.272.87-.512 1.136-.235.261-.566.392-.992.392-.176 0-.39-.03-.64-.088l.08-1.096a.793.793 0 00.232.032c.309 0 .525-.181.648-.544.122-.368.2-.941.232-1.72l.08-2.272h4.304zm2.838 0h1.288v3.648l2.672-3.648h1.216V43H85.8v-3.64L83.127 43h-1.224v-5.6zm8.01 0h1.288v3.648l2.673-3.648h1.216V43h-1.28v-3.64L91.138 43h-1.225v-5.6zm2.585-.36c-1.025 0-1.542-.408-1.553-1.224h.889c.01.39.231.584.663.584.214 0 .377-.048.489-.144.111-.101.17-.248.175-.44h.888c-.005.4-.136.704-.392.912-.255.208-.642.312-1.16.312zm8.074 6.056a3.269 3.269 0 01-1.552-.368 2.852 2.852 0 01-1.088-1.032 2.887 2.887 0 01-.392-1.496c0-.555.13-1.05.392-1.488a2.77 2.77 0 011.088-1.032 3.23 3.23 0 011.56-.376c.485 0 .922.085 1.312.256.394.17.725.416.992.736l-.832.768c-.379-.437-.848-.656-1.408-.656a1.84 1.84 0 00-.928.232 1.62 1.62 0 00-.64.632c-.15.272-.224.581-.224.928 0 .347.075.656.224.928.155.272.368.485.64.64.272.15.581.224.928.224.56 0 1.029-.221 1.408-.664l.832.768a2.602 2.602 0 01-.992.744c-.395.17-.835.256-1.32.256zm6.765-2.352h-.896V43h-1.288v-5.6h1.288v2.264h.928l1.472-2.264h1.368l-1.832 2.704L110.265 43h-1.472l-1.456-2.256zm4.975-3.344h1.288v3.648l2.672-3.648h1.216V43h-1.28v-3.64L113.536 43h-1.224v-5.6zm8.01 0h1.288v3.648l2.672-3.648h1.216V43h-1.28v-3.64L121.546 43h-1.224v-5.6zm2.584-.36c-1.024 0-1.541-.408-1.552-1.224h.888c.011.39.232.584.664.584.213 0 .376-.048.488-.144.112-.101.171-.248.176-.44h.888c-.005.4-.136.704-.392.912-.256.208-.643.312-1.16.312zm-18.474-16.018V25H89.82V6.8h14.274v3.978h-9.178v3.068h8.086v3.848h-8.086v3.328h9.516zM125.645 6.8V25h-4.238l-8.034-9.698V25h-5.044V6.8h4.238l8.034 9.698V6.8h5.044z" fill="#111518"></path>
    <path d="M82.54 15.556c-.267-.596-.633-1.182-1.17-1.86-1.352-1.7-1.764-5.49-1.769-5.527a.457.457 0 00-.316-.386.465.465 0 00-.486.132c-1.613 1.804-.935 4.59-.568 5.704.1.305.21.664.289 1.028.595 2.94-.555 4.272-.825 4.54-.262.073-.44.037-.605-.14-.569-.623-.757-2.664-.49-5.323a5.44 5.44 0 00-.037-1.482c-.561-3.268-2.617-5.365-3.14-6.1-1.44-2.127-1.586-5.668-1.59-5.7a.458.458 0 00-.715-.36c-2.402 1.633-2.196 5.565-1.861 7.76.078.51.229 1.027.49 1.682.93 2.34-.183 5.364-.192 5.39-.01.028-.019.05-.023.078-.142.746-.38 1.191-.647 1.191a.313.313 0 01-.087-.014c-.325-.068-.495-.413-.5-.713-.018-3.877-3.909-5.182-3.95-5.196a.456.456 0 00-.486.137.447.447 0 00-.064.5c.046.095.192.513.092 1.99a16.978 16.978 0 01-.72 3.9c-.926 3.019-.78 5.878-.77 6.014.712 7.742 11.845 9.098 18.453 4.737.724-.478 1.315-1.023 1.75-1.623 2.439-3.364 1.004-7.932-.064-10.36zM65.603 22.95a.454.454 0 01-.431.477h-.028a.456.456 0 01-.458-.427 16.324 16.324 0 01.019-2.113.463.463 0 01.49-.423.458.458 0 01.426.486c-.05.718-.06 1.373-.018 2zm.224-4.027a.455.455 0 01-.453.4c-.019 0-.037 0-.06-.005a.459.459 0 01-.399-.504l.22-1.755a.462.462 0 01.514-.395c.252.032.43.259.398.509l-.22 1.75zM79.438 6.219a.455.455 0 01-.383-.518c.03-.185.195-1.13.644-1.606a.46.46 0 01.648-.02.45.45 0 01.02.642c-.19.201-.351.777-.406 1.122a.458.458 0 01-.523.38zM62.73 8.483c-.088-.338-.306-.896-.515-1.078a.452.452 0 01-.043-.641.46.46 0 01.647-.042c.494.43.752 1.354.798 1.535a.454.454 0 01-.33.553.46.46 0 01-.558-.327z" fill="#FF6B09"></path>
  </symbol>
  <symbol fill="none" xmlns="http://www.w3.org/2000/svg" viewBox="0 0 128 45" id="logo-white">
    <path d="M19.136 6.8V25h-5.148v-7.098h-7.02V25H1.82V6.8h5.148v6.838h7.02V6.8h5.148zm18.841 11.18c0 .035-.026.442-.078 1.222H27.655c.208.728.607 1.291 1.196 1.69.607.381 1.36.572 2.262.572.676 0 1.257-.095 1.742-.286.503-.19 1.006-.503 1.508-.936l2.6 2.704c-1.37 1.525-3.371 2.288-6.006 2.288-1.646 0-3.094-.312-4.342-.936-1.248-.624-2.218-1.49-2.912-2.6-.676-1.11-1.014-2.366-1.014-3.77 0-1.387.33-2.626.988-3.718a7.057 7.057 0 012.782-2.6c1.179-.624 2.505-.936 3.978-.936 1.404 0 2.678.295 3.822.884a6.431 6.431 0 012.704 2.522c.676 1.092 1.014 2.392 1.014 3.9zm-7.514-3.796c-.762 0-1.404.217-1.924.65-.502.433-.823 1.023-.962 1.768h5.772c-.138-.745-.468-1.335-.988-1.768-.502-.433-1.135-.65-1.898-.65zm10.832-8.476h4.94V25h-4.94V5.708zm9.19 0h4.94V25h-4.94V5.708z" fill="#fff"></path>
    <path d="M6.488 41.8h-2.6L3.392 43H2.064l2.496-5.6h1.28L8.344 43h-1.36l-.496-1.2zm-.408-.984l-.888-2.144-.888 2.144H6.08zm10.27 1.128v2.216h-1.2V43h-3.953v1.16h-1.2l.008-2.216h.224c.337-.01.574-.256.713-.736.138-.48.223-1.165.255-2.056l.065-1.752h4.303v4.544h.784zm-4.009-2.672a11.86 11.86 0 01-.167 1.68c-.086.448-.216.779-.393.992h2.505v-3.488h-1.92l-.024.816zm8.969 3.824c-.57 0-1.088-.123-1.552-.368a2.853 2.853 0 01-1.088-1.032 2.887 2.887 0 01-.392-1.496c0-.555.13-1.05.392-1.488.267-.443.63-.787 1.088-1.032.464-.25.984-.376 1.56-.376.485 0 .923.085 1.312.256.395.17.725.416.992.736l-.832.768c-.379-.437-.848-.656-1.408-.656a1.84 1.84 0 00-.928.232 1.62 1.62 0 00-.64.632c-.15.272-.224.581-.224.928 0 .347.075.656.224.928.155.272.368.485.64.64.272.15.581.224.928.224.56 0 1.03-.221 1.408-.664l.832.768a2.593 2.593 0 01-.992.744c-.395.17-.835.256-1.32.256zm6.765-2.352h-.896V43H25.89v-5.6h1.288v2.264h.928l1.472-2.264h1.368l-1.832 2.704L31.003 43H29.53l-1.456-2.256zM33.05 37.4h1.288v3.648L37.01 37.4h1.216V43h-1.28v-3.64L34.274 43H33.05v-5.6zm8.01 0h1.288v3.648L45.02 37.4h1.216V43h-1.28v-3.64L42.284 43H41.06v-5.6zm2.584-.36c-1.024 0-1.541-.408-1.552-1.224h.888c.01.39.232.584.664.584.213 0 .376-.048.488-.144.112-.101.17-.248.176-.44h.888c-.005.4-.136.704-.392.912-.256.208-.643.312-1.16.312z" fill="#FF6B09"></path>
    <path d="M56.568 41.8h-2.6l-.496 1.2h-1.328l2.496-5.6h1.28l2.504 5.6h-1.36l-.496-1.2zm-.408-.984l-.888-2.144-.888 2.144h1.776zm9.583-3.416V43h-1.296v-2.296h-2.544V43h-1.296v-5.6h1.296v2.208h2.544V37.4h1.296zm6.787 1.056h-2.664L69.874 43h-1.288v-5.6h3.952l-.008 1.056zm6.535-1.056V43h-1.28v-4.544h-1.92l-.04 1.168c-.027.795-.091 1.44-.192 1.936-.102.49-.272.87-.512 1.136-.235.261-.566.392-.992.392-.176 0-.39-.03-.64-.088l.08-1.096a.793.793 0 00.232.032c.309 0 .525-.181.648-.544.122-.368.2-.941.232-1.72l.08-2.272h4.304zm2.838 0h1.288v3.648l2.672-3.648h1.216V43H85.8v-3.64L83.127 43h-1.224v-5.6zm8.01 0h1.288v3.648l2.673-3.648h1.216V43h-1.28v-3.64L91.138 43h-1.225v-5.6zm2.585-.36c-1.025 0-1.542-.408-1.553-1.224h.889c.01.39.231.584.663.584.214 0 .377-.048.489-.144.111-.101.17-.248.175-.44h.888c-.005.4-.136.704-.392.912-.255.208-.642.312-1.16.312zm8.074 6.056a3.269 3.269 0 01-1.552-.368 2.852 2.852 0 01-1.088-1.032 2.887 2.887 0 01-.392-1.496c0-.555.13-1.05.392-1.488a2.77 2.77 0 011.088-1.032 3.23 3.23 0 011.56-.376c.485 0 .922.085 1.312.256.394.17.725.416.992.736l-.832.768c-.379-.437-.848-.656-1.408-.656a1.84 1.84 0 00-.928.232 1.62 1.62 0 00-.64.632c-.15.272-.224.581-.224.928 0 .347.075.656.224.928.155.272.368.485.64.64.272.15.581.224.928.224.56 0 1.029-.221 1.408-.664l.832.768a2.602 2.602 0 01-.992.744c-.395.17-.835.256-1.32.256zm6.765-2.352h-.896V43h-1.288v-5.6h1.288v2.264h.928l1.472-2.264h1.368l-1.832 2.704L110.265 43h-1.472l-1.456-2.256zm4.975-3.344h1.288v3.648l2.672-3.648h1.216V43h-1.28v-3.64L113.536 43h-1.224v-5.6zm8.01 0h1.288v3.648l2.672-3.648h1.216V43h-1.28v-3.64L121.546 43h-1.224v-5.6zm2.584-.36c-1.024 0-1.541-.408-1.552-1.224h.888c.011.39.232.584.664.584.213 0 .376-.048.488-.144.112-.101.171-.248.176-.44h.888c-.005.4-.136.704-.392.912-.256.208-.643.312-1.16.312zm-18.474-16.018V25H89.82V6.8h14.274v3.978h-9.178v3.068h8.086v3.848h-8.086v3.328h9.516zM125.645 6.8V25h-4.238l-8.034-9.698V25h-5.044V6.8h4.238l8.034 9.698V6.8h5.044z" fill="#fff"></path>
    <path d="M82.54 15.556c-.267-.596-.633-1.182-1.17-1.86-1.352-1.7-1.764-5.49-1.769-5.527a.457.457 0 00-.316-.386.465.465 0 00-.486.132c-1.613 1.804-.935 4.59-.568 5.704.1.305.21.664.289 1.028.595 2.94-.555 4.272-.825 4.54-.262.073-.44.037-.605-.14-.569-.623-.757-2.664-.49-5.323a5.44 5.44 0 00-.037-1.482c-.561-3.268-2.617-5.365-3.14-6.1-1.44-2.127-1.586-5.668-1.59-5.7a.458.458 0 00-.715-.36c-2.402 1.633-2.196 5.565-1.861 7.76.078.51.229 1.027.49 1.682.93 2.34-.183 5.364-.192 5.39-.01.028-.019.05-.023.078-.142.746-.38 1.191-.647 1.191a.314.314 0 01-.087-.014c-.325-.068-.495-.413-.5-.713-.018-3.877-3.909-5.182-3.95-5.196a.456.456 0 00-.486.137.447.447 0 00-.064.5c.046.095.192.513.092 1.99a16.978 16.978 0 01-.72 3.9c-.926 3.019-.78 5.878-.77 6.014.712 7.742 11.845 9.098 18.453 4.737.724-.478 1.315-1.023 1.75-1.623 2.439-3.364 1.004-7.932-.064-10.36zM65.603 22.95a.454.454 0 01-.431.477h-.028a.456.456 0 01-.458-.427 16.324 16.324 0 01.019-2.113.463.463 0 01.49-.423.458.458 0 01.426.486c-.05.718-.06 1.373-.018 2zm.224-4.027a.454.454 0 01-.453.4c-.019 0-.037 0-.06-.005a.459.459 0 01-.399-.504l.22-1.755a.462.462 0 01.514-.395c.252.032.43.259.398.509l-.22 1.75zM79.438 6.219a.455.455 0 01-.383-.518c.03-.185.195-1.13.644-1.606a.46.46 0 01.648-.02.45.45 0 01.02.642c-.19.201-.352.777-.406 1.122a.458.458 0 01-.523.38zM62.73 8.483c-.088-.338-.306-.896-.516-1.078a.452.452 0 01-.042-.641.46.46 0 01.647-.042c.493.43.752 1.354.798 1.535a.454.454 0 01-.33.553.46.46 0 01-.558-.327z" fill="#FF6B09"></path>
  </symbol>
  <symbol fill="none" xmlns="http://www.w3.org/2000/svg" viewBox="0 0 40 40" id="soc_instagram">
    <g clip-path="url(#clip0)">
      <path d="M39.315 7.155a7.283 7.283 0 00-6.47-6.47 120.815 120.815 0 00-25.69 0 7.283 7.283 0 00-6.47 6.47 120.815 120.815 0 000 25.69 7.283 7.283 0 006.47 6.47 120.82 120.82 0 0025.69 0 7.283 7.283 0 006.47-6.47 120.82 120.82 0 000-25.69z" fill="url(#paint0_radial)"></path>
      <path d="M37.14 8.601a6.463 6.463 0 00-5.742-5.741 107.25 107.25 0 00-22.797 0A6.464 6.464 0 002.86 8.6c-.81 7.592-.81 15.206 0 22.797A6.463 6.463 0 008.6 37.14c7.592.81 15.206.81 22.797 0a6.463 6.463 0 005.741-5.74c.81-7.592.81-15.206 0-22.798z" fill="url(#paint1_linear)"></path>
      <path d="M.6 32.016c.027.277.055.553.085.83a7.283 7.283 0 006.47 6.47c8.555.912 17.136.912 25.69 0a7.283 7.283 0 006.47-6.47c.03-.277.058-.553.086-.83H.6z" fill="url(#paint2_linear)"></path>
      <path d="M39.315 32.845c.49-4.597.717-9.2.68-13.804l-9.142-9.143C29.71 8.594 28.041 7.78 26.08 7.709a172.253 172.253 0 00-12.108 0c-3.35.116-5.691 2.367-6.292 5.675-.106.585-.169 1.176-.252 1.765v9.699c.046.314.114.627.135.943.134 2.012.96 3.736 2.285 4.902l9.304 9.304a120.87 120.87 0 0013.692-.682 7.283 7.283 0 006.47-6.47z" fill="url(#paint3_linear)"></path>
      <path d="M39.315 32.846a7.283 7.283 0 01-6.47 6.47c-4.558.486-9.126.713-13.691.681l-9.29-9.29c1.077.943 2.48 1.517 4.11 1.578 4.03.152 8.076.148 12.108.002 3.646-.132 6.285-2.83 6.398-6.476.122-3.872.122-7.753 0-11.625-.051-1.682-.642-3.162-1.621-4.282l9.137 9.137c.036 4.603-.19 9.208-.68 13.805z" fill="url(#paint4_linear)"></path>
      <path d="M24.72 15.669a6.407 6.407 0 10-9.051 9.051l14.823 14.823c.785-.068 1.57-.144 2.353-.228a7.284 7.284 0 006.47-6.47c.084-.784.16-1.568.228-2.353L24.72 15.67z" fill="url(#paint5_linear)"></path>
      <path d="M39.923 24.309l-11.93-11.93a1.524 1.524 0 10-2.133 2.133l13.85 13.851c.093-1.35.164-2.703.213-4.054z" fill="url(#paint6_linear)"></path>
      <path d="M7.429 15.149c.083-.589.146-1.18.252-1.764.6-3.309 2.943-5.56 6.292-5.675a171.52 171.52 0 0112.108 0c3.645.13 6.285 2.83 6.399 6.476a186.03 186.03 0 010 11.624c-.114 3.647-2.753 6.345-6.398 6.477-4.032.145-8.077.149-12.109-.002-3.645-.137-6.166-2.842-6.41-6.494-.02-.316-.088-.63-.134-.944V15.15zm12.574 14.977c1.845 0 3.692.055 5.535-.013 2.889-.107 4.666-1.831 4.733-4.718.084-3.596.084-7.197 0-10.794-.067-2.886-1.845-4.65-4.733-4.712a261.253 261.253 0 00-11 0c-2.866.06-4.649 1.789-4.726 4.643-.1 3.642-.1 7.29 0 10.932.077 2.854 1.86 4.543 4.726 4.649 1.82.068 3.643.013 5.465.013z" fill="url(#paint7_linear)"></path>
      <path d="M7.429 15.149c.083-.589.146-1.18.252-1.764.6-3.309 2.943-5.56 6.292-5.675a171.52 171.52 0 0112.108 0c3.645.13 6.285 2.83 6.399 6.476a186.03 186.03 0 010 11.624c-.114 3.647-2.753 6.345-6.398 6.477-4.032.145-8.077.149-12.109-.002-3.645-.137-6.166-2.842-6.41-6.494-.02-.316-.088-.63-.134-.944V15.15zm12.574 14.977c1.845 0 3.692.055 5.535-.013 2.889-.107 4.666-1.831 4.733-4.718.084-3.596.084-7.197 0-10.794-.067-2.886-1.845-4.65-4.733-4.712a261.253 261.253 0 00-11 0c-2.866.06-4.649 1.789-4.726 4.643-.1 3.642-.1 7.29 0 10.932.077 2.854 1.86 4.543 4.726 4.649 1.82.068 3.643.013 5.465.013z" fill="#fff"></path>
      <path d="M20 13.593a6.407 6.407 0 100 12.814 6.407 6.407 0 000-12.814zm0 10.608a4.201 4.201 0 110-8.402 4.201 4.201 0 010 8.402zm8.305-10.9a1.524 1.524 0 11-3.048 0 1.524 1.524 0 013.048 0z" fill="#fff"></path>
    </g>
    <defs>
      <linearGradient id="paint1_linear" x1="15.341" y1="17.379" x2="-52.423" y2="-20.738" gradientUnits="userSpaceOnUse">
        <stop stop-color="#A1B5D8" stop-opacity="0"></stop>
        <stop offset=".309" stop-color="#90A2BD" stop-opacity=".31"></stop>
        <stop offset=".755" stop-color="#7C8B9C" stop-opacity=".757"></stop>
        <stop offset="1" stop-color="#748290"></stop>
      </linearGradient>
      <linearGradient id="paint2_linear" x1="20" y1="35.31" x2="20" y2="41.545" gradientUnits="userSpaceOnUse">
        <stop stop-color="#FAE100" stop-opacity="0"></stop>
        <stop offset=".307" stop-color="#FCA800" stop-opacity=".306"></stop>
        <stop offset=".627" stop-color="#FE7300" stop-opacity=".627"></stop>
        <stop offset=".869" stop-color="#FF5200" stop-opacity=".867"></stop>
        <stop offset="1" stop-color="#FF4500"></stop>
      </linearGradient>
      <linearGradient id="paint3_linear" x1="17.724" y1="17.668" x2="7.825" y2="7.769" gradientUnits="userSpaceOnUse">
        <stop stop-color="#833AB4" stop-opacity="0"></stop>
        <stop offset="1" stop-color="#833AB4"></stop>
      </linearGradient>
      <linearGradient id="paint4_linear" x1="27.414" y1="36.585" x2="22.473" y2="13.292" gradientUnits="userSpaceOnUse">
        <stop stop-color="#833AB4" stop-opacity="0"></stop>
        <stop offset="1" stop-color="#833AB4"></stop>
      </linearGradient>
      <linearGradient id="paint5_linear" x1="29.294" y1="29.294" x2="9.449" y2="9.449" gradientUnits="userSpaceOnUse">
        <stop stop-color="#833AB4" stop-opacity="0"></stop>
        <stop offset="1" stop-color="#833AB4"></stop>
      </linearGradient>
      <linearGradient id="paint6_linear" x1="30.766" y1="17.286" x2="24.204" y2="10.724" gradientUnits="userSpaceOnUse">
        <stop stop-color="#833AB4" stop-opacity="0"></stop>
        <stop offset="1" stop-color="#833AB4"></stop>
      </linearGradient>
      <linearGradient id="paint7_linear" x1="27.942" y1="12.113" x2="11.761" y2="28.294" gradientUnits="userSpaceOnUse">
        <stop stop-color="#833AB4"></stop>
        <stop offset=".092" stop-color="#9C3495"></stop>
        <stop offset=".293" stop-color="#DC2546"></stop>
        <stop offset=".392" stop-color="#FD1D1D"></stop>
        <stop offset=".559" stop-color="#FC6831"></stop>
        <stop offset=".689" stop-color="#FC9B40"></stop>
        <stop offset=".752" stop-color="#FCAF45"></stop>
        <stop offset=".781" stop-color="#FDB750"></stop>
        <stop offset=".866" stop-color="#FECB6A"></stop>
        <stop offset=".942" stop-color="#FFD87A"></stop>
        <stop offset="1" stop-color="#FFDC80"></stop>
      </linearGradient>
      <radialGradient id="paint0_radial" cx="0" cy="0" r="1" gradientUnits="userSpaceOnUse" gradientTransform="translate(8.2 34.957) scale(44.113)">
        <stop stop-color="#FAE100"></stop>
        <stop offset=".054" stop-color="#FADC04"></stop>
        <stop offset=".117" stop-color="#FBCE0E"></stop>
        <stop offset=".183" stop-color="#FCB720"></stop>
        <stop offset=".251" stop-color="#FE9838"></stop>
        <stop offset=".305" stop-color="#FF7950"></stop>
        <stop offset=".492" stop-color="#FF1C74"></stop>
        <stop offset="1" stop-color="#6C1CD1"></stop>
      </radialGradient>
      <clipPath id="clip0">
        <path fill="#fff" d="M0 0h40v40H0z"></path>
      </clipPath>
    </defs>
  </symbol>
  <symbol fill="none" xmlns="http://www.w3.org/2000/svg" viewBox="0 0 30 30" id="soc_vk">
    <g clip-path="url(#clip0)">
      <path d="M25.82 17.306c.994.972 2.045 1.886 2.937 2.955.395.476.768.966 1.053 1.518.405.784.039 1.647-.665 1.694l-4.37-.002c-1.127.093-2.026-.36-2.783-1.131-.605-.617-1.165-1.273-1.747-1.91a4.14 4.14 0 00-.786-.699c-.597-.387-1.115-.269-1.456.353-.347.634-.426 1.334-.46 2.04-.047 1.029-.358 1.3-1.392 1.346-2.209.105-4.306-.23-6.253-1.344-1.718-.983-3.05-2.37-4.208-3.94-2.257-3.058-3.985-6.417-5.538-9.871-.35-.779-.094-1.196.764-1.211a117.38 117.38 0 014.279-.002c.58.008.963.34 1.187.888.771 1.897 1.715 3.701 2.9 5.374.315.445.637.89 1.095 1.204.507.347.893.232 1.131-.332.152-.358.218-.744.252-1.127.113-1.32.128-2.636-.07-3.95-.122-.821-.584-1.352-1.402-1.508-.418-.079-.356-.234-.154-.473.351-.41.682-.667 1.34-.667h4.94c.777.154.95.503 1.057 1.285l.004 5.487c-.009.303.151 1.202.697 1.402.436.143.724-.206.986-.483 1.183-1.255 2.027-2.739 2.78-4.275.335-.675.623-1.377.902-2.077.207-.52.53-.776 1.117-.765l4.753.004c.142 0 .284.002.42.026.802.136 1.021.48.774 1.263-.39 1.227-1.148 2.25-1.89 3.277-.793 1.097-1.64 2.157-2.427 3.26-.722 1.008-.665 1.516.232 2.391z" fill="#436EAB"></path>
    </g>
    <defs>
      <clipPath id="clip0">
        <path fill="#fff" d="M0 0h30v30H0z"></path>
      </clipPath>
    </defs>
  </symbol>
  <symbol aria-hidden="true" xmlns="http://www.w3.org/2000/svg" overflow="hidden" viewBox="0 0 undefined undefined" id="sprite">
    <defs>
      <symbol id="icon-audio-book" viewBox="0 0 39 32">
        <path fill="var(--color1, #ff6b09)" d="M3.048 29.453h12.23a3.738 3.738 0 003.38 2.116h.772c1.465 0 2.761-.83 3.381-2.116h12.237a2.289 2.289 0 002.286-2.286V5.262a2.289 2.289 0 00-2.286-2.286h-1.234V1.955c0-.84-.684-1.524-1.524-1.524H5.799c-.84 0-1.524.683-1.524 1.524v1.021H3.048A2.289 2.289 0 00.762 5.262v21.905a2.289 2.289 0 002.286 2.286zm29.24-4.701H19.81V7.047c2.884.377 5.121 2.845 5.121 5.831v.687l-.181-.04a.759.759 0 00-.908.58l-1.213 5.519c-.09.41.17.816.58.907l2.621.578a1.946 1.946 0 002.319-1.492l.702-3.192a1.954 1.954 0 00-1.484-2.324l-.912-.201v-1.023c0-3.827-2.917-6.986-6.644-7.37V1.956h12.48l-.002 22.796zm-7.122-9.575l1.871.412a.422.422 0 01.325.508l-.702 3.191a.45.45 0 01-.507.331l-1.874-.413.886-4.03zM5.798 1.956h12.487v3.55c-3.731.381-6.652 3.541-6.652 7.371v1.022l-.914.202a1.935 1.935 0 00-1.222.854 1.928 1.928 0 00-.26 1.468l.7 3.188a1.96 1.96 0 002.325 1.495l2.61-.577a.762.762 0 00.58-.907l-1.213-5.519c-.043-.198-.164-.37-.334-.478s-.378-.144-.574-.102l-.174.038v-.686c0-2.988 2.24-5.458 5.128-5.832v17.706H5.798V1.953zm7.118 13.221l.887 4.029-1.863.411a.433.433 0 01-.512-.328l-.702-3.196a.42.42 0 01.323-.506l1.867-.412zM2.286 5.262c0-.42.342-.762.762-.762h1.227v20.252c0 .84.684 1.524 1.524 1.524H32.29c.84 0 1.524-.683 1.524-1.524V4.5h1.234c.42 0 .762.342.762.762v21.905c0 .42-.342.762-.762.762H22.294a.76.76 0 00-.728.538 2.22 2.22 0 01-2.135 1.577h-.772a2.229 2.229 0 01-2.138-1.586.762.762 0 00-.725-.529H3.049a.763.763 0 01-.762-.762V5.262z"></path>
      </symbol>
      <symbol id="icon-hand" viewBox="0 0 33 32">
        <path fill="var(--color1, #ff6b09)" d="M1.993 12.558v2.831a.5.5 0 00.189.39 11.099 11.099 0 006.837 2.362c.74 0 1.482-.077 2.206-.224a12.01 12.01 0 004.89 1.032c1.707 0 3.351-.349 4.89-1.032 3.091.624 6.384-.046 9.042-2.138a.495.495 0 00.189-.39v-2.831a1.2 1.2 0 00-.575-1.027l-3.867-2.176c.846-1.073 1.476-2.602 1.586-3.913.321-2.256-1.518-4.646-4.165-4.646a4.208 4.208 0 00-2.948 1.227c-.027.027-.058.049-.084.076-.024.025-.043.054-.067.08-.016.017-.029.036-.044.053C19.315.852 17.861 0 16.148 0c-.166 0-.33.011-.492.028-.01-.001-.018-.006-.028-.006-.092 0-.287.024-.391.054-.015.004-.026.015-.041.021a4.485 4.485 0 00-3.013 2.156A4.176 4.176 0 009.004.796c-3.908 0-5.642 4.612-2.557 8.581l-3.903 2.167a1.192 1.192 0 00-.553 1.014zm19.003 4.27c-.084.041-.167.085-.251.123l-.002.001a11.007 11.007 0 01-4.627 1.006 11.026 11.026 0 01-6.674-2.228v-2.87c0-.098.047-.184.102-.221l4.542-2.524c.565.48 1.287.832 2.035.832.721 0 1.499-.357 2.052-.843l4.487 2.52c.083.053.13.139.13.237v2.87c-.571.429-1.173.795-1.794 1.098zm8.158-4.446a.201.201 0 01.092.176v2.587a9.988 9.988 0 01-6.737 1.98c.369-.23.771-.516 1.083-.76a.496.496 0 00.19-.39v-3.114c0-.435-.218-.835-.61-1.087l-2.383-1.339.58-.321c.703.573 1.307.744 1.848.744.662 0 1.36-.325 1.878-.759l4.06 2.284zM23.216 1.788c1.38 0 2.593.902 3.021 2.142A3.703 3.703 0 0124 2.788a.494.494 0 00-.788.084 3.684 3.684 0 01-2.548 1.76v-.003a4.786 4.786 0 00-.162-1.329c.563-.902 1.609-1.513 2.713-1.513zm-2.66 3.856a4.642 4.642 0 003.164-1.762 4.684 4.684 0 002.702 1.056c-.007 1.792-1.471 4.927-3.206 4.927-1.337 0-2.479-1.912-2.905-3.238a8.15 8.15 0 00.245-.983zm.101 3.729l-.886.491-.895-.502c.332-.413.636-.893.896-1.413.25.526.55 1.01.884 1.425zM19.32 6.465c-.478 1.427-1.705 3.49-3.199 3.49-1.742 0-3.226-2.864-3.509-4.696.075-.019 2.43.126 4.05-2.001.822.688 1.932 1.143 3.011 1.188.013.647-.144 1.406-.352 2.018zM16.15.992c2.78 0 3.309 2.392 3.352 2.442a4.123 4.123 0 01-2.563-1.276.497.497 0 00-.789.087 4.073 4.073 0 01-3.58 2.022c.136-1.822 1.596-3.274 3.58-3.274zm-3.689 6.946c.257.515.563 1.006.913 1.438l-.875.487-.907-.51a7.76 7.76 0 00.87-1.415zm-3.455-6.15c1.125 0 2.155.571 2.729 1.514-.029.1-.106.498-.117.548a3.675 3.675 0 01-1.821-1.062.496.496 0 00-.788.086 3.712 3.712 0 01-3.177 1.815c.158-1.627 1.518-2.9 3.174-2.9zm-3.13 3.89a4.711 4.711 0 003.643-1.796 4.624 4.624 0 002.055.961c.029.575.179 1.273.35 1.789-.274.84-.799 1.841-1.451 2.505l-.014.01c-.408.43-.988.719-1.444.719-1.594 0-2.841-2.508-3.14-4.188zm-2.891 6.88c0-.075.033-.139.067-.162l4.116-2.284c.247.206.304.229.353.265.484.322.928.482 1.534.482.645 0 1.232-.273 1.749-.694.029-.023.06-.045.088-.068l.587.33-2.446 1.361a1.269 1.269 0 00-.584 1.071v3.114c0 .152.07.296.19.39.317.249.727.539 1.083.761a10.024 10.024 0 01-6.737-1.98v-2.587z"></path>
        <path fill="var(--color1, #ff6b09)" d="M31.259 20.781a2.063 2.063 0 00-2.007-.11l-6.119 2.956a2.11 2.11 0 00-2.107-2.071l-3.509.001c-1.73-1.504-3.941-2.425-5.952-2.473-1.983-.047-3.763-.06-4.593-.064v-1.002H0v11.517h6.972v-1.379c1.912 1.097 6.939 3.845 9.325 3.845.054 0 .107-.001.158-.004 4.196-.235 14.091-7.198 14.743-7.661a2.08 2.08 0 001.034-1.796c0-.719-.364-1.376-.973-1.758zM5.98 28.542H.992v-9.533H5.98v9.533zm24.707-5.058a.296.296 0 00-.044.028c-.102.073-10.281 7.271-14.244 7.494a2.354 2.354 0 01-.121.003c-2.092 0-7.194-2.753-9.307-4.001v-6.997c.827.004 2.597.017 4.569.064 1.837.044 3.876.921 5.456 2.346l.141.128 3.887-.001c.617 0 1.119.502 1.119 1.119s-.502 1.119-1.119 1.119h-7.142v.992h7.142c.684 0 1.288-.333 1.674-.839l6.984-3.373c.343-.167.725-.146 1.049.057s.508.537.508.918c0 .391-.212.753-.553.945zM16.612 12.159h-.992v.92h.992v-.92zm0 1.833h-.992v.92h.992v-.92zm0 1.834h-.992v.92h.992v-.92z"></path>
      </symbol>
      <symbol id="icon-book" viewBox="0 0 46 32">
        <path fill="var(--color2, #fff)" d="M20.267 4.608H6.627v1.021h13.64V4.608zm0 3.808H8.67v1.021h11.597V8.416zm0 3.808H6.627v1.021h13.64v-1.021zm0 3.808H8.67v1.021h11.597v-1.021zm0 3.808H6.627v1.021h13.64V19.84zm0 3.808H8.67v1.021h11.597v-1.021zM38.99 4.608H25.35v1.021h13.64V4.608zm-2.043 3.808H25.35v1.021h11.597V8.416zm2.043 3.808H25.35v1.021h13.64v-1.021zm-2.043 3.808H25.35v1.021h11.597v-1.021zm2.043 3.808H25.35v1.021h13.64V19.84zm-2.043 3.808H25.35v1.021h11.597v-1.021z"></path>
        <path fill="var(--color2, #fff)" d="M43.915 3.445h-1.872V.633a.511.511 0 00-.511-.511H26.267c-1.49 0-2.781.805-3.458 2.011A3.95 3.95 0 0019.35.122H4.085a.511.511 0 00-.511.511v2.812H1.702a.511.511 0 00-.511.511v27.411c0 .282.229.511.511.511h42.213a.511.511 0 00.511-.511V3.956a.511.511 0 00-.511-.511zM26.267 1.144h14.754v27.35H25.178a3.01 3.01 0 00-1.859.68V4.085a2.932 2.932 0 012.948-2.942zm-21.671 0H19.35a2.924 2.924 0 012.942 2.829c.001.022.003.091.006.112v25.087a2.993 2.993 0 00-1.852-.678H4.596V1.144zM2.213 4.467h1.362v24.538c0 .282.229.511.511.511h16.361c.778 0 1.531.511 1.771 1.341H2.213V4.467zm41.191 26.389H23.4a1.845 1.845 0 011.778-1.341h16.354a.511.511 0 00.511-.511V4.466h1.362v26.39z"></path>
      </symbol>
      <symbol id="icon-program" viewBox="0 0 31 32">
        <path fill="var(--color1, #ff6b09)" d="M30.151 4.961l-.001-.002a.32.32 0 00-.06-.09L25.284.063a.258.258 0 00-.041-.033l-.009-.006c-.012-.007-.024-.014-.036-.019L25.187 0a.277.277 0 00-.099-.02H3.911a.284.284 0 00-.284.284v29.311c0 .019.002.037.006.056l.007.023.009.03.014.026.013.023c.01.014.021.028.033.04l.003.003 2.165 2.164c.111.111.29.111.402 0l1.965-1.963 1.964 1.963c.055.056.128.083.201.083s.145-.027.201-.083l1.964-1.963 1.964 1.963a.284.284 0 00.402 0l1.964-1.963 1.963 1.963a.283.283 0 00.401 0l1.965-1.963 1.963 1.963c.055.056.128.083.201.083s.145-.027.201-.083l1.963-1.963 1.965 1.963a.283.283 0 00.401 0l2.165-2.164.011-.014.024-.029c.007-.009.011-.02.016-.03.003-.007.007-.012.009-.019.006-.013.009-.026.012-.039l.004-.013a.286.286 0 00.006-.058V5.071a.296.296 0 00-.023-.109zM25.367.949l3.836 3.835h-3.836V.949zm4.237 28.507l-1.88 1.88-1.965-1.963a.283.283 0 00-.401 0l-1.963 1.963-1.963-1.963a.284.284 0 00-.402 0l-1.965 1.963-1.963-1.962v-.001a.284.284 0 00-.402 0l-1.963 1.963-1.964-1.963a.284.284 0 00-.402 0l-1.963 1.963-1.964-1.963a.284.284 0 00-.402 0l-1.965 1.963-1.88-1.88V.547H24.8v4.522c0 .157.127.284.284.284h4.521v24.103z"></path>
        <path fill="var(--color1, #ff6b09)" d="M6.314 3.234h9.303a.284.284 0 100-.568H6.314a.284.284 0 100 .568zm0 1.757h14.919a.284.284 0 100-.568H6.314a.284.284 0 100 .568zM6.03 6.568v9.199c0 .157.127.284.284.284h21.172a.284.284 0 00.284-.284V6.568a.284.284 0 00-.284-.284H6.314a.284.284 0 00-.284.284zm6.278.284h14.893v2.445H12.308V6.852zm0 3.013h14.893v2.444H12.308V9.865zm0 3.012h14.893v2.605H12.308v-2.605zm-5.71-6.025h5.142v2.445H6.598V6.852zm0 3.013h5.142v2.444H6.598V9.865zm0 3.012h5.142v2.605H6.598v-2.605zm20.888 4.452H6.314a.284.284 0 00-.284.284v9.198a.284.284 0 10.568 0v-2.889h5.142v2.889a.284.284 0 10.568 0v-2.889h14.893v2.889a.284.284 0 10.568 0v-9.198a.282.282 0 00-.283-.284zM11.74 23.354H6.598v-2.443h5.142v2.443zm0-3.012H6.598v-2.444h5.142v2.444zm15.461 3.012H12.308v-2.443h14.893v2.443zm0-3.012H12.308v-2.444h14.893v2.444zM2.281-.021a.284.284 0 00-.284.284v29.311a.284.284 0 10.568 0V.263a.284.284 0 00-.284-.284zm-1.563 0a.284.284 0 00-.284.284v29.311a.284.284 0 10.568 0V.263a.284.284 0 00-.284-.284z"></path>
      </symbol>
      <symbol id="icon-arrow-to-left" viewBox="0 0 54 32">
        <path fill="var(--color1, #ff6b09)" d="M52 14a2 2 0 110 4v-4zM.586 17.414a2 2 0 010-2.828L13.314 1.858a2 2 0 112.828 2.828L4.828 16l11.314 11.314a2 2 0 11-2.828 2.828L.586 17.414zM52 18H2v-4h50v4z"></path>
      </symbol>
      <symbol id="icon-arrow-to-right" viewBox="0 0 54 32">
        <path fill="var(--color1, #ff6b09)" d="M2 14a2 2 0 100 4v-4zm51.414 3.414a2 2 0 000-2.828L40.686 1.858a2 2 0 10-2.828 2.828L49.172 16 37.858 27.314a2 2 0 102.828 2.828l12.728-12.728zM2 18h50v-4H2v4z"></path>
      </symbol>
      <symbol id="icon-burger-button" viewBox="0 0 48 32">
        <path fill="#ff6b09" stroke-width="4.571" d="M0 2.286h46.857M0 16h46.857M0 29.714h46.857"></path>
      </symbol>
      <symbol id="icon-check" viewBox="0 0 41 32">
        <path fill="var(--color1, #ff6b09)" d="M34.457 1.514a29.389 29.389 0 00-4.265 2.379c-2.731 1.797-5.228 3.936-7.57 6.218-2.341 2.287-4.52 4.735-6.581 7.28-.515.636-2.823 3.47-2.823 3.47L3.622 6.481-.001 16.523 12.976 32c1.26-2.551 2.473-5.07 3.662-7.258.296-.556.605-1.08.901-1.612 0 0 1.523-2.677 1.923-3.352 1.602-2.697 3.333-5.325 5.239-7.821 1.908-2.491 3.983-4.87 6.335-6.961a28.328 28.328 0 013.751-2.872c1.332-.848 2.747-1.591 4.261-2.125-1.575.31-3.111.848-4.592 1.514z"></path>
      </symbol>
      <symbol id="icon-cross-button" viewBox="0 0 32 32">
        <path fill="none" stroke="var(--color2, #000)" stroke-width="3.765" d="M1.882 29.168L29.168 1.882m0 27.286L1.882 1.882"></path>
      </symbol>
      <symbol id="icon-fire" viewBox="0 0 24 32">
        <path fill="var(--color1, #ff6b09)" d="M21.041 16.08c-.275-.615-.654-1.222-1.208-1.922-1.398-1.757-1.824-5.676-1.829-5.714a.472.472 0 00-.327-.399.48.48 0 00-.502.136c-1.668 1.865-.967 4.746-.588 5.897.104.315.218.686.298 1.062.616 3.04-.573 4.417-.853 4.694-.27.075-.455.038-.625-.146-.588-.644-.782-2.753-.507-5.502a5.602 5.602 0 00-.038-1.532c-.58-3.379-2.704-5.546-3.245-6.306C10.129 4.149 9.978.489 9.973.456a.474.474 0 00-.74-.371C6.75 1.772 6.964 5.836 7.309 8.106c.081.526.237 1.062.507 1.739.962 2.42-.19 5.544-.199 5.573s-.019.052-.024.08c-.147.771-.393 1.231-.668 1.231a.341.341 0 01-.09-.014c-.336-.07-.512-.428-.516-.738-.019-4.008-4.041-5.357-4.084-5.371a.471.471 0 00-.502.141.461.461 0 00-.066.517c.047.099.199.531.095 2.058a17.543 17.543 0 01-.744 4.032C.061 20.474.213 23.43.222 23.57c.736 8.002 12.245 9.404 19.075 4.896.748-.493 1.36-1.057 1.81-1.677 2.521-3.477 1.038-8.199-.066-10.708zM3.535 23.725a.47.47 0 01-.445.493h-.028a.472.472 0 01-.474-.442 16.899 16.899 0 01.019-2.185.478.478 0 01.507-.437c.261.019.46.244.441.503a15.144 15.144 0 00-.019 2.068zm.232-4.163a.47.47 0 01-.469.414c-.019 0-.038 0-.062-.005a.473.473 0 01-.412-.521l.227-1.814a.478.478 0 01.531-.409.471.471 0 01.412.526l-.227 1.809z"></path>
      </symbol>
      <symbol id="icon-cap-phone" viewBox="0 0 33 32">
        <path fill="var(--color1, #ff6b09)" d="M30.175-.128H14.429a1.861 1.861 0 00-1.859 1.859v6.518L.872 13.159a.38.38 0 00-.049.678l1.492.893v9.515A1.719 1.719 0 00.98 25.919v.917c0 .21.171.381.381.381h2.671c.21 0 .381-.171.381-.381v-.917a1.72 1.72 0 00-1.336-1.673v-9.06l1.18.706c-.036.272-.005-.474-.017 4.43 0 1.612 4.129 2.476 8.33 2.525v7.425a1.858 1.858 0 001.858 1.856h15.746a1.859 1.859 0 001.857-1.857c0 .051-.002-1.573 0-28.54a1.87 1.87 0 00-1.856-1.859zM3.652 25.918v.536H1.743v-.536a.955.955 0 111.909 0zm26.523 5.446H14.429a1.096 1.096 0 01-1.096-1.094v-2.574h17.935v2.575c0 .597-.497 1.092-1.092 1.092zm1.092-4.429H13.332v-4.086c2.051-.023 8.335-.475 8.335-2.527-.002-3.081.005-4.33-.01-4.436l3.421-2.049a.382.382 0 00-.049-.678l-11.698-4.91V5.067h17.935v21.868zm-18.316-9.143c-2.113 0-6.182.273-7.949 1.427.011-3.53-.122-3.3.312-3.6 1.098-.809 4.238-1.373 7.637-1.373 1.482 0 7.954.408 7.954 1.778v3.195c-1.784-1.165-5.832-1.428-7.954-1.428zm.382-16.061c0-.604.491-1.095 1.095-1.095h15.746c.604 0 1.093.498 1.093 1.095v2.574H13.332V1.731zm-.382 7.184l11.09 4.655-2.748 1.644c-1.461-1.449-6.294-1.73-8.342-1.73-2.051 0-6.884.282-8.342 1.73L1.86 13.569l11.091-4.655zM5.002 20.321c0-.617 2.73-1.767 7.949-1.767 5.222 0 7.954 1.151 7.954 1.767s-2.732 1.768-7.954 1.768c-5.219 0-7.949-1.151-7.949-1.768z"></path>
      </symbol>
      <symbol id="icon-human" viewBox="0 0 27 32">
        <path fill="var(--color1, #ff6b09)" d="M-.105 31.754H27.25c.136-3.12-.088-8.295-2.006-10.759l-.069-.088-4.191-2.104c.091-.307.136-.588.154-.795a1.449 1.449 0 00-.102-.692c-.691-1.655-2.155-2.525-2.959-2.896a5.158 5.158 0 00.48-1.567c.456-.128.822-.489.942-.971l.489-1.987a1.329 1.329 0 00-.454-1.364c1.379-3.133-.931-6.087-1.057-6.243C15.975-.417 12.815.089 12.648.119c-4.561.955-6.321 4.451-5.328 8.55-.294.326-.418.78-.309 1.226l.492 1.99c.119.478.483.838.935.968.14.993.56 1.89 1.177 2.614v1.576c-6.545 3.352-2.398 1.213-7.643 3.867-.01.049-2.461 2.654-2.097 10.375l.022.472zm26.404-.991h-4.502v-1.891l2.978-6.817c1.492 2.476 1.547 7.203 1.524 8.708zm-6.144-12.84c-.174 1.996-1.268 1.393-1.944 2.93-.531-.584-.691-1.285-.548-2.035.258-1.377-.583-1.786-.375-3.233l.031-.033v-.005c.018-.02.184-.217.232-.28 1.781.776 2.639 2.221 2.604 2.656zM10.6 16.354a5.075 5.075 0 005.694.076c.114 1.138.559 1.365.401 2.203a3.5 3.5 0 00-.055.459l-3.066 3.456-3.919-4.419.946-.494v-1.281zm-1.233-4.229V6.843c.477-.883 1.128-1.522 1.936-1.906 2.165 1.225 4.657 3.053 6.329 4.893-.002 2.343.007 2.35-.009 2.542l-.001.012c-.13 2.128-1.88 3.892-4.124 3.892-2.181 0-3.992-1.713-4.123-3.913a2.69 2.69 0 01-.008-.238zm-.611 6.482l4.816 5.43 3.234-3.644c.074.213.178.414.296.608l-3.53 4.414-5.264-6.583.447-.224zm9.862-7.278v-1.53l.368-.421c.02.775.104-.14-.368 1.951zM12.829 1.09c.196.012 2.824-.4 4.901 1.843.082.103 1.773 2.281 1.093 4.665-.233-1.061-.638-2.42-1.278-3.068l-.7.697c.632.641 1.048 2.591 1.206 3.602-2.901-3.035-6.643-4.957-6.694-4.989-.188.117-1.771.418-2.921 2.653l-.055.107v1.642l-.145.002c-.731-3.528.669-6.33 4.593-7.153zM8.132 9.262l.249 1.008v1.06l-.414-1.674c-.061-.25.124-.344.165-.394zm-.725 10.023l6.166 7.712 4.172-5.218c.454.406.672.464 1.634.959l-.325-1.101c-.082-.279.244-.728.441-.934.44-.238.806-.578 1.08-.998l3.404 1.709-3.167 7.251v2.099H6.335v-2.099l-3.169-7.25 4.242-2.129zM2.37 22.058l2.978 6.815v1.891H.846c-.023-1.504.033-6.229 1.524-8.706z"></path>
      </symbol>
      <symbol id="icon-phone" viewBox="0 0 32 32">
        <path fill="var(--color1, #ff6b09)" d="M4.657.002a2.002 2.002 0 00-1.392.651L.67 3.505c.004-.008-.01-.007-.084.097a.624.624 0 00-.09.176C-.56 7.142.148 10.842 1.872 14.362s4.475 6.888 7.633 9.651c3.158 2.764 6.721 4.926 10.119 5.999s6.692 1.058 9.133-.713a.759.759 0 00.131-.127l.01-.012 2.582-2.84a2.02 2.02 0 00-.134-2.84l-6.126-5.571a2.02 2.02 0 00-2.84.133l-2.772 3.048c-2.25-.652-4.173-1.756-6.023-3.439s-3.132-3.494-3.993-5.673l2.771-3.048a2.02 2.02 0 00-.133-2.84L6.104.519A2.008 2.008 0 004.656.001h-.001zm.058 1.251a.75.75 0 01.541.201l6.126 5.571a.736.736 0 01.05 1.061l-3.063 3.366a.632.632 0 00-.124.639c.93 2.537 2.429 4.618 4.493 6.495s4.275 3.174 6.889 3.859c.111.029.228.027.339-.005s.21-.095.287-.18l3.064-3.367a.736.736 0 011.06-.049l6.127 5.571a.735.735 0 01.049 1.06l-2.561 2.815c-2.003 1.438-4.826 1.519-7.986.521-3.173-1.002-6.617-3.076-9.666-5.744s-5.702-5.926-7.332-9.254C1.394 10.519.809 7.189 1.696 4.254l2.502-2.75a.747.747 0 01.52-.251z"></path>
      </symbol>
      <symbol id="icon-logo" viewBox="0 0 91 32">
        <path fill="var(--color3, #111518)" d="M13.608 4.836v12.942H9.947v-5.047H4.955v5.047H1.294V4.836h3.661v4.863h4.992V4.836h3.661zm13.398 7.95c0 .025-.018.314-.055.869h-7.285c.148.518.431.918.851 1.202.431.271.968.407 1.609.407.481 0 .894-.068 1.239-.203a3.63 3.63 0 001.072-.666l1.849 1.923c-.974 1.085-2.397 1.627-4.271 1.627-1.171 0-2.2-.222-3.088-.666s-1.578-1.06-2.071-1.849c-.481-.789-.721-1.683-.721-2.681 0-.986.234-1.867.703-2.644.481-.789 1.14-1.405 1.978-1.849s1.781-.666 2.829-.666c.998 0 1.904.21 2.718.629a4.58 4.58 0 011.923 1.793c.481.777.721 1.701.721 2.773zm-5.343-2.7c-.542 0-.998.154-1.368.462-.357.308-.586.727-.684 1.257h4.105c-.099-.53-.333-.949-.703-1.257-.357-.308-.807-.462-1.35-.462zm7.702-6.027h3.513v13.719h-3.513V4.059zm6.536 0h3.513v13.719h-3.513V4.059z"></path>
        <path fill="var(--color1, #ff6b09)" d="M4.614 29.724H2.765l-.353.853h-.944l1.775-3.982h.91l1.781 3.982h-.967l-.353-.853zm-.29-.699L3.693 27.5l-.631 1.525h1.263zm7.302.802v1.576h-.853v-.825h-2.81v.825H7.11l.006-1.576h.159c.239-.008.408-.182.506-.523s.159-.829.182-1.462l.045-1.246h3.061v3.231h.557zm-2.85-1.9a8.56 8.56 0 01-.119 1.195c-.061.319-.154.554-.279.705h1.781v-2.48H8.794l-.017.58zm6.378 2.719c-.406 0-.774-.087-1.104-.262a2.03 2.03 0 01-.774-.734c-.186-.315-.279-.669-.279-1.064s.093-.747.279-1.058a1.98 1.98 0 01.774-.734 2.3 2.3 0 011.109-.267c.345 0 .656.061.933.182.281.121.516.296.705.523l-.592.546a1.271 1.271 0 00-1.001-.466c-.246 0-.466.055-.66.165a1.155 1.155 0 00-.455.449c-.106.193-.159.413-.159.66s.053.466.159.66c.11.193.262.345.455.455.193.106.413.159.66.159.398 0 .732-.157 1.001-.472l.592.546c-.19.231-.425.408-.705.529s-.594.182-.939.182zm4.81-1.672h-.637v1.604h-.916v-3.982h.916v1.61h.66l1.047-1.61h.973l-1.303 1.923 1.343 2.059H21l-1.035-1.604zm3.538-2.378h.916v2.594l1.9-2.594h.865v3.982h-.91V27.99l-1.9 2.588h-.87v-3.982zm5.696 0h.916v2.594l1.9-2.594h.865v3.982h-.91V27.99l-1.9 2.588h-.87v-3.982zm1.838-.256c-.728 0-1.096-.29-1.104-.87h.631c.008.277.165.415.472.415.152 0 .267-.034.347-.102.08-.072.121-.176.125-.313h.631c-.004.284-.097.501-.279.649s-.457.222-.825.222z"></path>
        <path fill="var(--color3, #111518)" d="M40.226 29.724h-1.849l-.353.853h-.944l1.775-3.982h.91l1.781 3.982h-.967l-.353-.853zm-.29-.699l-.631-1.525-.631 1.525h1.263zm6.814-2.429v3.982h-.922v-1.633h-1.809v1.633h-.922v-3.982h.922v1.57h1.809v-1.57h.922zm4.827.75h-1.894l.006 3.231h-.916v-3.982h2.81l-.006.751zm4.647-.75v3.982h-.91v-3.231h-1.365l-.028.831a8.564 8.564 0 01-.137 1.377c-.072.349-.193.618-.364.808-.167.186-.402.279-.705.279-.125 0-.277-.021-.455-.063l.057-.779a.562.562 0 00.165.023c.22 0 .374-.129.461-.387.087-.262.142-.669.165-1.223l.057-1.616h3.061zm2.018 0h.916v2.594l1.9-2.594h.865v3.982h-.91V27.99l-1.9 2.588h-.87v-3.982zm5.696 0h.916v2.594l1.9-2.594h.865v3.982h-.91V27.99l-1.9 2.588h-.87v-3.982zm1.838-.256c-.728 0-1.096-.29-1.104-.87h.631c.008.277.165.415.472.415.152 0 .267-.034.347-.102.08-.072.121-.176.125-.313h.631c-.004.284-.097.501-.279.649s-.457.222-.825.222zm5.742 4.306c-.406 0-.774-.087-1.104-.262a2.03 2.03 0 01-.774-.734c-.186-.315-.279-.669-.279-1.064s.093-.747.279-1.058a1.98 1.98 0 01.774-.734 2.3 2.3 0 011.109-.267c.345 0 .656.061.933.182.28.121.516.296.705.523l-.592.546a1.271 1.271 0 00-1.001-.466 1.31 1.31 0 00-.66.165 1.155 1.155 0 00-.455.449c-.106.193-.159.413-.159.66s.053.466.159.66c.11.193.262.345.455.455.193.106.413.159.66.159.398 0 .732-.157 1.001-.472l.592.546c-.19.231-.425.408-.705.529s-.594.182-.939.182zm4.811-1.672h-.637v1.604h-.916v-3.982h.916v1.61h.66l1.047-1.61h.973l-1.303 1.923 1.343 2.059h-1.047l-1.035-1.604zm3.537-2.378h.916v2.594l1.9-2.594h.865v3.982h-.91V27.99l-1.9 2.588h-.87v-3.982zm5.696 0h.916v2.594l1.9-2.594h.865v3.982h-.91V27.99l-1.9 2.588h-.87v-3.982zm1.838-.256c-.728 0-1.096-.29-1.104-.87h.631c.008.277.165.415.472.415.151 0 .267-.034.347-.102.08-.072.122-.176.125-.313h.631c-.004.284-.097.501-.279.649s-.457.222-.825.222zM74.263 14.949v2.829H63.872V4.836h10.15v2.829h-6.527v2.182h5.75v2.736h-5.75v2.367h6.767zM89.348 4.836v12.942h-3.014l-5.713-6.896v6.896h-3.587V4.836h3.014l5.713 6.896V4.836h3.587z"></path>
        <path fill="var(--color1, #ff6b09)" d="M58.695 11.062c-.189-.423-.45-.84-.831-1.322-.962-1.209-1.255-3.905-1.258-3.931a.326.326 0 00-.225-.275.331.331 0 00-.346.094c-1.147 1.283-.665 3.265-.404 4.057.072.217.15.472.205.731.424 2.091-.394 3.038-.587 3.229-.186.052-.313.026-.43-.1-.404-.443-.538-1.894-.349-3.785a3.89 3.89 0 00-.026-1.054c-.399-2.324-1.86-3.815-2.233-4.338C51.188 2.855 51.083.337 51.08.315a.324.324 0 00-.508-.255c-1.708 1.16-1.561 3.956-1.323 5.518.055.362.163.731.349 1.196.662 1.665-.13 3.814-.137 3.834s-.013.036-.016.055c-.101.53-.27.847-.46.847a.205.205 0 01-.062-.01c-.231-.048-.352-.294-.355-.507-.013-2.757-2.78-3.685-2.81-3.694a.323.323 0 00-.345.097.32.32 0 00-.046.356c.033.068.137.365.065 1.416a12.072 12.072 0 01-.512 2.773 13.547 13.547 0 00-.548 4.276c.506 5.505 8.423 6.469 13.122 3.368a4.742 4.742 0 001.245-1.154c1.734-2.392.714-5.64-.046-7.366zm-12.043 5.259a.322.322 0 01-.306.339h-.02a.324.324 0 01-.326-.304c-.029-.472-.023-.966.013-1.503a.326.326 0 01.652.045c-.036.511-.042.976-.013 1.422zm.159-2.864a.323.323 0 01-.323.284c-.013 0-.026 0-.042-.003a.327.327 0 01-.284-.359l.156-1.248a.328.328 0 01.649.081l-.156 1.244zm9.679-9.035a.322.322 0 01-.272-.368c.02-.131.138-.804.458-1.142.123-.13.329-.137.461-.015s.138.327.015.457c-.135.143-.25.553-.289.798a.326.326 0 01-.372.27zm-11.882 1.61c-.062-.24-.217-.637-.366-.766-.135-.118-.149-.322-.03-.456s.324-.148.46-.03c.351.305.535.963.568 1.092a.322.322 0 01-.235.393.328.328 0 01-.397-.232z"></path>
      </symbol>
      <symbol id="icon-logo-white" viewBox="0 0 91 32">
        <path fill="var(--color2, #fff)" d="M13.608 4.836v12.942H9.947v-5.047H4.955v5.047H1.294V4.836h3.661v4.863h4.992V4.836h3.661zm13.398 7.95c0 .025-.018.314-.055.869h-7.285c.148.518.431.918.851 1.202.431.271.968.407 1.609.407.481 0 .894-.068 1.239-.203a3.63 3.63 0 001.072-.666l1.849 1.923c-.974 1.085-2.397 1.627-4.271 1.627-1.171 0-2.2-.222-3.088-.666s-1.578-1.06-2.071-1.849c-.481-.789-.721-1.683-.721-2.681 0-.986.234-1.867.703-2.644.481-.789 1.14-1.405 1.978-1.849s1.781-.666 2.829-.666c.998 0 1.904.21 2.718.629a4.58 4.58 0 011.923 1.793c.481.777.721 1.701.721 2.773zm-5.343-2.7c-.542 0-.998.154-1.368.462-.357.308-.586.727-.684 1.257h4.105c-.099-.53-.333-.949-.703-1.257-.357-.308-.807-.462-1.35-.462zm7.702-6.027h3.513v13.719h-3.513V4.059zm6.536 0h3.513v13.719h-3.513V4.059z"></path>
        <path fill="var(--color1, #ff6b09)" d="M4.614 29.724H2.765l-.353.853h-.944l1.775-3.982h.91l1.781 3.982h-.967l-.353-.853zm-.29-.699L3.693 27.5l-.631 1.525h1.263zm7.302.802v1.576h-.853v-.825h-2.81v.825H7.11l.006-1.576h.159c.239-.008.408-.182.506-.523s.159-.829.182-1.462l.045-1.246h3.061v3.231h.557zm-2.85-1.9a8.56 8.56 0 01-.119 1.195c-.061.319-.154.554-.279.705h1.781v-2.48H8.794l-.017.58zm6.378 2.719c-.406 0-.774-.087-1.104-.262a2.03 2.03 0 01-.774-.734c-.186-.315-.279-.669-.279-1.064s.093-.747.279-1.058a1.98 1.98 0 01.774-.734 2.3 2.3 0 011.109-.267c.345 0 .656.061.933.182.281.121.516.296.705.523l-.592.546a1.271 1.271 0 00-1.001-.466c-.246 0-.466.055-.66.165a1.155 1.155 0 00-.455.449c-.106.193-.159.413-.159.66s.053.466.159.66c.11.193.262.345.455.455.193.106.413.159.66.159.398 0 .732-.157 1.001-.472l.592.546c-.19.231-.425.408-.705.529s-.594.182-.939.182zm4.81-1.672h-.637v1.604h-.916v-3.982h.916v1.61h.66l1.047-1.61h.973l-1.303 1.923 1.343 2.059H21l-1.035-1.604zm3.538-2.378h.916v2.594l1.9-2.594h.865v3.982h-.91V27.99l-1.9 2.588h-.87v-3.982zm5.696 0h.916v2.594l1.9-2.594h.865v3.982h-.91V27.99l-1.9 2.588h-.87v-3.982zm1.838-.256c-.728 0-1.096-.29-1.104-.87h.631c.008.277.165.415.472.415.152 0 .267-.034.347-.102.08-.072.121-.176.125-.313h.631c-.004.284-.097.501-.279.649s-.457.222-.825.222z"></path>
        <path fill="var(--color2, #fff)" d="M40.226 29.724h-1.849l-.353.853h-.944l1.775-3.982h.91l1.781 3.982h-.967l-.353-.853zm-.29-.699l-.631-1.525-.631 1.525h1.263zm6.814-2.429v3.982h-.922v-1.633h-1.809v1.633h-.922v-3.982h.922v1.57h1.809v-1.57h.922zm4.827.75h-1.894l.006 3.231h-.916v-3.982h2.81l-.006.751zm4.647-.75v3.982h-.91v-3.231h-1.365l-.028.831a8.564 8.564 0 01-.137 1.377c-.072.349-.193.618-.364.808-.167.186-.402.279-.705.279-.125 0-.277-.021-.455-.063l.057-.779a.562.562 0 00.165.023c.22 0 .374-.129.461-.387.087-.262.142-.669.165-1.223l.057-1.616h3.061zm2.018 0h.916v2.594l1.9-2.594h.865v3.982h-.91V27.99l-1.9 2.588h-.87v-3.982zm5.696 0h.916v2.594l1.9-2.594h.865v3.982h-.91V27.99l-1.9 2.588h-.87v-3.982zm1.838-.256c-.728 0-1.096-.29-1.104-.87h.631c.008.277.165.415.472.415.152 0 .267-.034.347-.102.08-.072.121-.176.125-.313h.631c-.004.284-.097.501-.279.649s-.457.222-.825.222zm5.742 4.306c-.406 0-.774-.087-1.104-.262a2.03 2.03 0 01-.774-.734c-.186-.315-.279-.669-.279-1.064s.093-.747.279-1.058a1.98 1.98 0 01.774-.734 2.3 2.3 0 011.109-.267c.345 0 .656.061.933.182.28.121.516.296.705.523l-.592.546a1.271 1.271 0 00-1.001-.466 1.31 1.31 0 00-.66.165 1.155 1.155 0 00-.455.449c-.106.193-.159.413-.159.66s.053.466.159.66c.11.193.262.345.455.455.193.106.413.159.66.159.398 0 .732-.157 1.001-.472l.592.546c-.19.231-.425.408-.705.529s-.594.182-.939.182zm4.811-1.672h-.637v1.604h-.916v-3.982h.916v1.61h.66l1.047-1.61h.973l-1.303 1.923 1.343 2.059h-1.047l-1.035-1.604zm3.537-2.378h.916v2.594l1.9-2.594h.865v3.982h-.91V27.99l-1.9 2.588h-.87v-3.982zm5.696 0h.916v2.594l1.9-2.594h.865v3.982h-.91V27.99l-1.9 2.588h-.87v-3.982zm1.838-.256c-.728 0-1.096-.29-1.104-.87h.631c.008.277.165.415.472.415.151 0 .267-.034.347-.102.08-.072.122-.176.125-.313h.631c-.004.284-.097.501-.279.649s-.457.222-.825.222zM74.263 14.949v2.829H63.872V4.836h10.15v2.829h-6.527v2.182h5.75v2.736h-5.75v2.367h6.767zM89.348 4.836v12.942h-3.014l-5.713-6.896v6.896h-3.587V4.836h3.014l5.713 6.896V4.836h3.587z"></path>
        <path fill="var(--color1, #ff6b09)" d="M58.695 11.062c-.189-.423-.45-.84-.831-1.322-.962-1.209-1.255-3.905-1.258-3.931a.326.326 0 00-.225-.275.33.33 0 00-.345.094c-1.147 1.283-.665 3.265-.404 4.057.072.217.15.472.205.731.424 2.091-.394 3.038-.587 3.229-.186.052-.313.026-.43-.1-.404-.443-.538-1.894-.349-3.785a3.89 3.89 0 00-.026-1.054c-.399-2.324-1.86-3.815-2.233-4.338C51.189 2.855 51.084.337 51.081.315a.324.324 0 00-.508-.255c-1.708 1.16-1.561 3.956-1.323 5.518.055.362.163.731.349 1.196.662 1.665-.13 3.814-.137 3.834s-.013.036-.016.055c-.101.53-.27.847-.46.847a.205.205 0 01-.062-.01c-.231-.048-.352-.294-.355-.507-.013-2.757-2.78-3.685-2.81-3.694a.323.323 0 00-.345.097.32.32 0 00-.046.356c.033.068.137.365.065 1.416a12.072 12.072 0 01-.512 2.773 13.547 13.547 0 00-.548 4.276c.506 5.505 8.423 6.469 13.122 3.368a4.742 4.742 0 001.245-1.154c1.734-2.392.714-5.64-.046-7.366zm-12.043 5.259a.322.322 0 01-.306.339h-.02a.324.324 0 01-.326-.304c-.029-.472-.023-.966.013-1.503a.326.326 0 01.652.045c-.036.511-.042.976-.013 1.422zm.159-2.864a.323.323 0 01-.323.284c-.013 0-.026 0-.042-.003a.327.327 0 01-.284-.359l.156-1.248a.328.328 0 01.649.081l-.156 1.244zm9.678-9.035a.322.322 0 01-.272-.368c.02-.131.138-.804.458-1.142.123-.13.329-.137.461-.015s.138.327.015.457c-.135.143-.251.553-.289.798a.327.327 0 01-.372.27zm-11.881 1.61c-.062-.24-.217-.637-.366-.766-.135-.118-.149-.322-.03-.456s.324-.148.46-.03c.351.305.535.963.568 1.092a.322.322 0 01-.235.393.327.327 0 01-.397-.232z"></path>
      </symbol>
      <symbol id="icon-soc_instagram" viewBox="0 0 32 32">
        <path fill="var(--color4, #000)" d="M31.452 5.724A5.827 5.827 0 0026.276.548a96.718 96.718 0 00-20.553 0A5.827 5.827 0 00.547 5.724a96.718 96.718 0 000 20.553 5.827 5.827 0 005.176 5.176c6.844.73 13.709.73 20.553 0a5.828 5.828 0 005.176-5.176c.73-6.844.73-13.708 0-20.553z"></path>
        <path fill="var(--color4, #000)" d="M29.712 6.881a5.17 5.17 0 00-4.593-4.593 85.795 85.795 0 00-18.238 0 5.171 5.171 0 00-4.593 4.593 85.795 85.795 0 000 18.238 5.17 5.17 0 004.593 4.593 85.795 85.795 0 0018.238 0 5.17 5.17 0 004.593-4.593 85.795 85.795 0 000-18.238z"></path>
        <path fill="var(--color4, #000)" d="M.48 25.613l.068.664a5.828 5.828 0 005.176 5.176c6.844.73 13.709.73 20.552 0a5.827 5.827 0 005.176-5.176c.024-.221.046-.442.069-.664H.48z"></path>
        <path fill="var(--color4, #000)" d="M31.452 26.276c.393-3.678.574-7.361.544-11.044l-7.314-7.314c-.914-1.043-2.249-1.694-3.817-1.751-3.225-.116-6.461-.11-9.687 0-2.679.092-4.553 1.893-5.033 4.54-.085.467-.136.941-.202 1.411v7.759c.037.252.091.502.108.755.107 1.61.769 2.989 1.828 3.922l7.443 7.443a96.755 96.755 0 0010.954-.545 5.828 5.828 0 005.176-5.176z"></path>
        <path fill="var(--color4, #000)" d="M31.452 26.277a5.827 5.827 0 01-5.176 5.176 96.738 96.738 0 01-10.953.545l-7.432-7.432c.862.754 1.985 1.213 3.288 1.262 3.225.121 6.461.118 9.686.002 2.917-.105 5.028-2.264 5.119-5.181.097-3.097.097-6.202 0-9.3-.041-1.346-.514-2.53-1.297-3.426l7.31 7.31a96.729 96.729 0 01-.545 11.044z"></path>
        <path fill="var(--color4, #000)" d="M19.776 12.535a5.125 5.125 0 10-7.241 7.241l11.859 11.859c.628-.055 1.255-.116 1.883-.182a5.827 5.827 0 005.176-5.176c.067-.627.128-1.255.182-1.883L19.776 12.535zm12.162 6.912l-9.544-9.544a1.22 1.22 0 00-2.189.737c0 .396.19.747.482.969l11.08 11.08c.075-1.081.132-2.162.171-3.243z"></path>
        <path fill="var(--color4, #000)" d="M5.943 12.119c.067-.471.117-.944.202-1.411.48-2.647 2.354-4.447 5.033-4.54 3.226-.111 6.461-.117 9.687 0 2.916.105 5.028 2.264 5.119 5.181.097 3.097.097 6.202 0 9.3-.091 2.917-2.202 5.076-5.119 5.181-3.225.116-6.462.119-9.687-.002-2.916-.11-4.933-2.274-5.128-5.195-.017-.253-.071-.503-.108-.755v-7.759zm10.06 11.982c1.476 0 2.954.044 4.428-.01 2.311-.086 3.733-1.465 3.787-3.774.067-2.877.067-5.758 0-8.636-.054-2.309-1.477-3.72-3.787-3.769a208.195 208.195 0 00-8.8 0c-2.293.048-3.719 1.431-3.781 3.714a161.406 161.406 0 000 8.746c.062 2.283 1.488 3.634 3.781 3.719 1.456.054 2.915.01 4.372.01z"></path>
        <path fill="var(--color2, #fff)" d="M5.943 12.119c.067-.471.117-.944.202-1.411.48-2.647 2.354-4.447 5.033-4.54 3.226-.111 6.461-.117 9.687 0 2.916.105 5.028 2.264 5.119 5.181.097 3.097.097 6.202 0 9.3-.091 2.917-2.202 5.076-5.119 5.181-3.225.116-6.462.119-9.687-.002-2.916-.11-4.933-2.274-5.128-5.195-.017-.253-.071-.503-.108-.755v-7.759zm10.06 11.982c1.476 0 2.954.044 4.428-.01 2.311-.086 3.733-1.465 3.787-3.774.067-2.877.067-5.758 0-8.636-.054-2.309-1.477-3.72-3.787-3.769a208.195 208.195 0 00-8.8 0c-2.293.048-3.719 1.431-3.781 3.714a161.406 161.406 0 000 8.746c.062 2.283 1.488 3.634 3.781 3.719 1.456.054 2.915.01 4.372.01z"></path>
        <path fill="var(--color2, #fff)" d="M16 10.875a5.125 5.125 0 100 10.25 5.125 5.125 0 000-10.25zm0 8.486a3.361 3.361 0 110-6.723 3.361 3.361 0 010 6.723zm6.644-8.72a1.22 1.22 0 11-2.439 0 1.22 1.22 0 012.439 0z"></path>
      </symbol>
      <symbol id="icon-soc_vk" viewBox="0 0 32 32">
        <path fill="var(--color5, #436eab)" d="M27.541 18.46c1.061 1.036 2.182 2.011 3.134 3.152.421.507.819 1.03 1.123 1.619.432.836.041 1.757-.709 1.807l-4.662-.002c-1.202.1-2.162-.384-2.968-1.206-.645-.657-1.243-1.357-1.864-2.037-.255-.278-.521-.539-.839-.746-.636-.413-1.189-.287-1.552.377-.37.675-.454 1.423-.491 2.175-.05 1.098-.382 1.386-1.484 1.437-2.357.111-4.593-.245-6.671-1.434-1.832-1.048-3.252-2.528-4.489-4.203-2.407-3.261-4.25-6.845-5.907-10.53-.373-.83-.1-1.276.816-1.291 1.521-.03 3.041-.027 4.564-.002.618.009 1.027.364 1.266.947.823 2.023 1.83 3.948 3.093 5.732.337.475.68.95 1.168 1.284.541.37.952.248 1.207-.355.161-.382.232-.793.268-1.202.121-1.407.136-2.812-.075-4.214-.13-.875-.623-1.442-1.496-1.607-.446-.084-.379-.25-.164-.505.375-.439.727-.712 1.43-.712h5.269c.829.164 1.014.536 1.127 1.371l.004 5.852c-.009.323.161 1.282.743 1.496.466.152.773-.22 1.052-.516 1.261-1.339 2.162-2.921 2.966-4.559.357-.72.664-1.469.961-2.216.22-.555.566-.828 1.191-.816l5.071.005c.15 0 .302.002.448.027.855.146 1.089.513.825 1.348-.416 1.309-1.225 2.4-2.016 3.496-.846 1.17-1.75 2.3-2.589 3.477-.77 1.075-.709 1.617.248 2.55z"></path>
      </symbol>
    </defs>
  </symbol>
  <symbol fill="none" xmlns="http://www.w3.org/2000/svg" viewBox="0 0 1680 922" id="wave-bg">
    <g filter="url(#filter0_d)">
      <path d="M234.5 795.5C135 806 64 865.5-.5 874.5v-878H1688V479c-47.6-11.2-234 175.833-340 213.5-156 25.5-60.5-99-425.5 77.5s-570.652 13.116-688 25.5z" fill="#fff"></path>
    </g>
    <defs>
      <filter id="filter0_d" x="-31.5" y="-8.5" width="1740.5" height="930" filterUnits="userSpaceOnUse" color-interpolation-filters="sRGB">
        <feFlood flood-opacity="0" result="BackgroundImageFix"></feFlood>
        <feColorMatrix in="SourceAlpha" values="0 0 0 0 0 0 0 0 0 0 0 0 0 0 0 0 0 0 127 0"></feColorMatrix>
        <feOffset dx="-5" dy="21"></feOffset>
        <feGaussianBlur stdDeviation="13"></feGaussianBlur>
        <feColorMatrix values="0 0 0 0 0 0 0 0 0 0 0 0 0 0 0 0 0 0 0.04 0"></feColorMatrix>
        <feBlend in2="BackgroundImageFix" result="effect1_dropShadow"></feBlend>
        <feBlend in="SourceGraphic" in2="effect1_dropShadow" result="shape"></feBlend>
      </filter>
    </defs>
  </symbol>
  <symbol fill="none" xmlns="http://www.w3.org/2000/svg" viewBox="0 0 320 665" id="wave-bg_mobile">
    <g filter="url(#filter0_d)">
      <path d="M355.819 569.892c-166.017 80.41-259.556 5.975-312.931 11.617-15.319 1.619-29.152 5.796-41.888 10.772-24.892 9.726-45.593 22.507-65 25.219V-.5h768v437.818c-21.65-5.103-106.433 80.106-154.646 97.266-70.955 11.618-27.518-45.102-193.535 35.308z" fill="#fff"></path>
    </g>
    <defs>
      <filter id="filter0_d" x="-95" y="-5.5" width="820" height="670" filterUnits="userSpaceOnUse" color-interpolation-filters="sRGB">
        <feFlood flood-opacity="0" result="BackgroundImageFix"></feFlood>
        <feColorMatrix in="SourceAlpha" values="0 0 0 0 0 0 0 0 0 0 0 0 0 0 0 0 0 0 127 0"></feColorMatrix>
        <feOffset dx="-5" dy="21"></feOffset>
        <feGaussianBlur stdDeviation="13"></feGaussianBlur>
        <feColorMatrix values="0 0 0 0 0 0 0 0 0 0 0 0 0 0 0 0 0 0 0.04 0"></feColorMatrix>
        <feBlend in2="BackgroundImageFix" result="effect1_dropShadow"></feBlend>
        <feBlend in="SourceGraphic" in2="effect1_dropShadow" result="shape"></feBlend>
      </filter>
    </defs>
  </symbol>
  <symbol fill="none" xmlns="http://www.w3.org/2000/svg" viewBox="0 0 768 605" id="wave-bg_tablet">
    <g filter="url(#filter0_d)">
      <path d="M106.888 521.509C61.631 526.293 29.338 553.4 0 557.5V1h768v376.318c-21.65-5.103-106.433 80.106-154.646 97.266-70.955 11.618-27.518-45.102-193.535 35.308s-259.556 5.975-312.931 11.617z" fill="#fff"></path>
    </g>
    <defs>
      <filter id="filter0_d" x="-31" y="-4" width="820" height="608.5" filterUnits="userSpaceOnUse" color-interpolation-filters="sRGB">
        <feFlood flood-opacity="0" result="BackgroundImageFix"></feFlood>
        <feColorMatrix in="SourceAlpha" values="0 0 0 0 0 0 0 0 0 0 0 0 0 0 0 0 0 0 127 0"></feColorMatrix>
        <feOffset dx="-5" dy="21"></feOffset>
        <feGaussianBlur stdDeviation="13"></feGaussianBlur>
        <feColorMatrix values="0 0 0 0 0 0 0 0 0 0 0 0 0 0 0 0 0 0 0.04 0"></feColorMatrix>
        <feBlend in2="BackgroundImageFix" result="effect1_dropShadow"></feBlend>
        <feBlend in="SourceGraphic" in2="effect1_dropShadow" result="shape"></feBlend>
      </filter>
    </defs>
  </symbol>
</svg>